<?xml version="1.0" encoding="UTF-8"?>
<svg xmlns="http://www.w3.org/2000/svg" 
     width="297mm" height="210mm" 
     viewBox="0 0 297 210">
  <rect width="297" height="210" fill="white"/>
<text x="148.5" y="10" text-anchor="middle" font-family="sans-serif" font-size="4.5" font-weight="bold">Pedalboard Case Cutting Template (1:1)</text>
<text x="148.5" y="15" text-anchor="middle" font-family="sans-serif" font-size="2.8" fill="#555">Display cutout: 34.5×36.7mm. Print at 100% on A4.</text>
<line x1="123.5" y1="20" x2="173.5" y2="20" stroke="black" stroke-width="0.4"/>
<line x1="123.5" y1="18" x2="123.5" y2="22" stroke="black" stroke-width="0.4"/>
<line x1="173.5" y1="18" x2="173.5" y2="22" stroke="black" stroke-width="0.4"/>
<line x1="133.5" y1="19" x2="133.5" y2="21" stroke="black" stroke-width="0.3"/>
<line x1="143.5" y1="19" x2="143.5" y2="21" stroke="black" stroke-width="0.3"/>
<line x1="153.5" y1="19" x2="153.5" y2="21" stroke="black" stroke-width="0.3"/>
<line x1="163.5" y1="19" x2="163.5" y2="21" stroke="black" stroke-width="0.3"/>
<text x="148.5" y="24.5" text-anchor="middle" font-family="sans-serif" font-size="2.5">50 mm</text>
<rect x="57.599999999999994" y="48.1" width="181.8" height="113.8" fill="none" stroke="#aaa" stroke-width="0.25" stroke-dasharray="3,2"/>
<text x="148.5" y="45.6" text-anchor="middle" font-family="sans-serif" font-size="2" fill="#aaa">Case surface 181.8 × 113.8 mm</text>
<circle cx="73.5" cy="96.5" r="11.15" fill="none" stroke="red" stroke-width="0.4"/>
<circle cx="73.5" cy="96.5" r="12.0" fill="none" stroke="orange" stroke-width="0.3" stroke-dasharray="1.5,1"/>
<circle cx="73.5" cy="96.5" r="0.4" fill="red"/>
<text x="73.5" y="82.5" text-anchor="middle" font-family="sans-serif" font-size="2" fill="red">B1</text>
<circle cx="73.5" cy="148.5" r="11.15" fill="none" stroke="red" stroke-width="0.4"/>
<circle cx="73.5" cy="148.5" r="12.0" fill="none" stroke="orange" stroke-width="0.3" stroke-dasharray="1.5,1"/>
<circle cx="73.5" cy="148.5" r="0.4" fill="red"/>
<text x="73.5" y="134.5" text-anchor="middle" font-family="sans-serif" font-size="2" fill="red">B2</text>
<circle cx="148.5" cy="96.5" r="11.15" fill="none" stroke="red" stroke-width="0.4"/>
<circle cx="148.5" cy="96.5" r="12.0" fill="none" stroke="orange" stroke-width="0.3" stroke-dasharray="1.5,1"/>
<circle cx="148.5" cy="96.5" r="0.4" fill="red"/>
<text x="148.5" y="82.5" text-anchor="middle" font-family="sans-serif" font-size="2" fill="red">B3</text>
<circle cx="148.5" cy="148.5" r="11.15" fill="none" stroke="red" stroke-width="0.4"/>
<circle cx="148.5" cy="148.5" r="12.0" fill="none" stroke="orange" stroke-width="0.3" stroke-dasharray="1.5,1"/>
<circle cx="148.5" cy="148.5" r="0.4" fill="red"/>
<text x="148.5" y="134.5" text-anchor="middle" font-family="sans-serif" font-size="2" fill="red">B4</text>
<circle cx="223.5" cy="96.5" r="11.15" fill="none" stroke="red" stroke-width="0.4"/>
<circle cx="223.5" cy="96.5" r="12.0" fill="none" stroke="orange" stroke-width="0.3" stroke-dasharray="1.5,1"/>
<circle cx="223.5" cy="96.5" r="0.4" fill="red"/>
<text x="223.5" y="82.5" text-anchor="middle" font-family="sans-serif" font-size="2" fill="red">B5</text>
<circle cx="223.5" cy="148.5" r="11.15" fill="none" stroke="red" stroke-width="0.4"/>
<circle cx="223.5" cy="148.5" r="12.0" fill="none" stroke="orange" stroke-width="0.3" stroke-dasharray="1.5,1"/>
<circle cx="223.5" cy="148.5" r="0.4" fill="red"/>
<text x="223.5" y="134.5" text-anchor="middle" font-family="sans-serif" font-size="2" fill="red">B6</text>
<circle cx="111.5" cy="63.5" r="11.15" fill="none" stroke="red" stroke-width="0.4"/>
<circle cx="111.5" cy="63.5" r="12.0" fill="none" stroke="orange" stroke-width="0.3" stroke-dasharray="1.5,1"/>
<circle cx="111.5" cy="63.5" r="0.4" fill="red"/>
<text x="111.5" y="49.5" text-anchor="middle" font-family="sans-serif" font-size="2" fill="red">E1</text>
<circle cx="186.5" cy="63.5" r="11.15" fill="none" stroke="red" stroke-width="0.4"/>
<circle cx="186.5" cy="63.5" r="12.0" fill="none" stroke="orange" stroke-width="0.3" stroke-dasharray="1.5,1"/>
<circle cx="186.5" cy="63.5" r="0.4" fill="red"/>
<text x="186.5" y="49.5" text-anchor="middle" font-family="sans-serif" font-size="2" fill="red">E2</text>
<rect x="93.75" y="107.35" width="34.5" height="36.7" fill="none" stroke="red" stroke-width="0.5"/>
<circle cx="93.75" cy="107.35" r="1.5" fill="none" stroke="blue" stroke-width="0.3"/>
<circle cx="128.25" cy="107.35" r="1.5" fill="none" stroke="blue" stroke-width="0.3"/>
<circle cx="93.75" cy="144.04999999999998" r="1.5" fill="none" stroke="blue" stroke-width="0.3"/>
<circle cx="128.25" cy="144.04999999999998" r="1.5" fill="none" stroke="blue" stroke-width="0.3"/>
<line x1="107.0" y1="125.69999999999999" x2="115.0" y2="125.69999999999999" stroke="red" stroke-width="0.15"/>
<line x1="111.0" y1="121.69999999999999" x2="111.0" y2="129.7" stroke="red" stroke-width="0.15"/>
<text x="111.0" y="104.35" text-anchor="middle" font-family="sans-serif" font-size="2.2" fill="red" font-weight="bold">D1</text>
<rect x="168.75" y="107.35" width="34.5" height="36.7" fill="none" stroke="red" stroke-width="0.5"/>
<circle cx="168.75" cy="107.35" r="1.5" fill="none" stroke="blue" stroke-width="0.3"/>
<circle cx="203.25" cy="107.35" r="1.5" fill="none" stroke="blue" stroke-width="0.3"/>
<circle cx="168.75" cy="144.04999999999998" r="1.5" fill="none" stroke="blue" stroke-width="0.3"/>
<circle cx="203.25" cy="144.04999999999998" r="1.5" fill="none" stroke="blue" stroke-width="0.3"/>
<line x1="182.0" y1="125.69999999999999" x2="190.0" y2="125.69999999999999" stroke="red" stroke-width="0.15"/>
<line x1="186.0" y1="121.69999999999999" x2="186.0" y2="129.7" stroke="red" stroke-width="0.15"/>
<text x="186.0" y="104.35" text-anchor="middle" font-family="sans-serif" font-size="2.2" fill="red" font-weight="bold">D2</text>
<circle cx="136.0" cy="77.5" r="3.0" fill="none" stroke="red" stroke-width="0.4"/>
<circle cx="136.0" cy="77.5" r="0.3" fill="red"/>
<text x="136.0" y="72.5" text-anchor="middle" font-family="sans-serif" font-size="1.8" fill="red">LP1</text>
<circle cx="161.0" cy="77.5" r="3.0" fill="none" stroke="red" stroke-width="0.4"/>
<circle cx="161.0" cy="77.5" r="0.3" fill="red"/>
<text x="161.0" y="72.5" text-anchor="middle" font-family="sans-serif" font-size="1.8" fill="red">LP2</text>
<circle cx="96.0" cy="99.7" r="2.0" fill="none" stroke="green" stroke-width="0.25"/>
<circle cx="96.0" cy="151.7" r="2.0" fill="none" stroke="green" stroke-width="0.25"/>
<circle cx="126.0" cy="99.7" r="2.0" fill="none" stroke="green" stroke-width="0.25"/>
<circle cx="126.0" cy="151.7" r="2.0" fill="none" stroke="green" stroke-width="0.25"/>
<circle cx="171.0" cy="99.7" r="2.0" fill="none" stroke="green" stroke-width="0.25"/>
<circle cx="171.0" cy="151.7" r="2.0" fill="none" stroke="green" stroke-width="0.25"/>
<circle cx="201.0" cy="99.7" r="2.0" fill="none" stroke="green" stroke-width="0.25"/>
<circle cx="201.0" cy="151.7" r="2.0" fill="none" stroke="green" stroke-width="0.25"/>
<rect x="12" y="184" width="135" height="22" fill="none" stroke="#ddd" stroke-width="0.2"/>
<text x="15" y="188" font-family="sans-serif" font-size="2.3" font-weight="bold">Legend</text>
<circle cx="18" cy="192" r="3" fill="none" stroke="red" stroke-width="0.4"/>
<text x="23" y="193" font-family="sans-serif" font-size="2">Cut — ø22.3 buttons/encoders, 34.5×36.7 displays, ø6.0 light pipes</text>
<circle cx="18" cy="196.5" r="3" fill="none" stroke="orange" stroke-width="0.3" stroke-dasharray="1.5,1"/>
<text x="23" y="197.5" font-family="sans-serif" font-size="2">LED ring ø24.0 — washer on top (reference)</text>
<circle cx="18" cy="201" r="1.5" fill="none" stroke="blue" stroke-width="0.3"/>
<text x="23" y="202" font-family="sans-serif" font-size="2">Corner drill ø3.0 — for rectangular display cutouts</text>
<circle cx="18" cy="205" r="0.85" fill="none" stroke="green" stroke-width="0.25"/>
<text x="23" y="206" font-family="sans-serif" font-size="2">Bezel mount ø4.0 (M1.6 clearance)</text>
</svg>