<?xml version="1.0" encoding="UTF-8"?>
<svg xmlns="http://www.w3.org/2000/svg" 
     width="297mm" height="210mm" 
     viewBox="0 0 297 210">
  <rect width="297" height="210" fill="white"/>
<text x="148.5" y="10" text-anchor="middle" font-family="sans-serif" font-size="4.5" font-weight="bold">Pedalboard Case Cutting Template (1:1)</text>
<text x="148.5" y="15" text-anchor="middle" font-family="sans-serif" font-size="2.8" fill="#555">Display cutout: 34.5×36.7mm (glass 34.3×36.5 + 0.1mm clearance). Print at 100%.</text>
<line x1="123.5" y1="20" x2="173.5" y2="20" stroke="black" stroke-width="0.4"/>
<line x1="123.5" y1="18" x2="123.5" y2="22" stroke="black" stroke-width="0.4"/>
<line x1="173.5" y1="18" x2="173.5" y2="22" stroke="black" stroke-width="0.4"/>
<line x1="133.5" y1="19" x2="133.5" y2="21" stroke="black" stroke-width="0.3"/>
<line x1="143.5" y1="19" x2="143.5" y2="21" stroke="black" stroke-width="0.3"/>
<line x1="153.5" y1="19" x2="153.5" y2="21" stroke="black" stroke-width="0.3"/>
<line x1="163.5" y1="19" x2="163.5" y2="21" stroke="black" stroke-width="0.3"/>
<text x="148.5" y="24.5" text-anchor="middle" font-family="sans-serif" font-size="2.5">50 mm</text>
<rect x="61.5" y="49.5" width="174.0" height="111.0" fill="none" stroke="#aaa" stroke-width="0.25" stroke-dasharray="3,2"/>
<text x="148.5" y="47.0" text-anchor="middle" font-family="sans-serif" font-size="2" fill="#aaa">PCB 174 × 111 mm</text>
<circle cx="73.5" cy="96.5" r="6.25" fill="none" stroke="red" stroke-width="0.4"/>
<circle cx="73.5" cy="96.5" r="12.0" fill="none" stroke="orange" stroke-width="0.3" stroke-dasharray="1.5,1"/>
<circle cx="73.5" cy="96.5" r="0.4" fill="red"/>
<text x="73.5" y="82.5" text-anchor="middle" font-family="sans-serif" font-size="2" fill="red">B1</text>
<circle cx="73.5" cy="148.5" r="6.25" fill="none" stroke="red" stroke-width="0.4"/>
<circle cx="73.5" cy="148.5" r="12.0" fill="none" stroke="orange" stroke-width="0.3" stroke-dasharray="1.5,1"/>
<circle cx="73.5" cy="148.5" r="0.4" fill="red"/>
<text x="73.5" y="134.5" text-anchor="middle" font-family="sans-serif" font-size="2" fill="red">B2</text>
<circle cx="148.5" cy="96.5" r="6.25" fill="none" stroke="red" stroke-width="0.4"/>
<circle cx="148.5" cy="96.5" r="12.0" fill="none" stroke="orange" stroke-width="0.3" stroke-dasharray="1.5,1"/>
<circle cx="148.5" cy="96.5" r="0.4" fill="red"/>
<text x="148.5" y="82.5" text-anchor="middle" font-family="sans-serif" font-size="2" fill="red">B3</text>
<circle cx="148.5" cy="148.5" r="6.25" fill="none" stroke="red" stroke-width="0.4"/>
<circle cx="148.5" cy="148.5" r="12.0" fill="none" stroke="orange" stroke-width="0.3" stroke-dasharray="1.5,1"/>
<circle cx="148.5" cy="148.5" r="0.4" fill="red"/>
<text x="148.5" y="134.5" text-anchor="middle" font-family="sans-serif" font-size="2" fill="red">B4</text>
<circle cx="223.5" cy="96.5" r="6.25" fill="none" stroke="red" stroke-width="0.4"/>
<circle cx="223.5" cy="96.5" r="12.0" fill="none" stroke="orange" stroke-width="0.3" stroke-dasharray="1.5,1"/>
<circle cx="223.5" cy="96.5" r="0.4" fill="red"/>
<text x="223.5" y="82.5" text-anchor="middle" font-family="sans-serif" font-size="2" fill="red">B5</text>
<circle cx="223.5" cy="148.5" r="6.25" fill="none" stroke="red" stroke-width="0.4"/>
<circle cx="223.5" cy="148.5" r="12.0" fill="none" stroke="orange" stroke-width="0.3" stroke-dasharray="1.5,1"/>
<circle cx="223.5" cy="148.5" r="0.4" fill="red"/>
<text x="223.5" y="134.5" text-anchor="middle" font-family="sans-serif" font-size="2" fill="red">B6</text>
<circle cx="111.5" cy="63.5" r="6.25" fill="none" stroke="red" stroke-width="0.4"/>
<circle cx="111.5" cy="63.5" r="12.0" fill="none" stroke="orange" stroke-width="0.3" stroke-dasharray="1.5,1"/>
<circle cx="111.5" cy="63.5" r="0.4" fill="red"/>
<text x="111.5" y="49.5" text-anchor="middle" font-family="sans-serif" font-size="2" fill="red">E1</text>
<circle cx="186.5" cy="63.5" r="6.25" fill="none" stroke="red" stroke-width="0.4"/>
<circle cx="186.5" cy="63.5" r="12.0" fill="none" stroke="orange" stroke-width="0.3" stroke-dasharray="1.5,1"/>
<circle cx="186.5" cy="63.5" r="0.4" fill="red"/>
<text x="186.5" y="49.5" text-anchor="middle" font-family="sans-serif" font-size="2" fill="red">E2</text>
<rect x="93.75" y="107.35" width="34.5" height="36.7" fill="none" stroke="red" stroke-width="0.5"/>
<circle cx="93.75" cy="107.35" r="1.5" fill="none" stroke="blue" stroke-width="0.3"/>
<circle cx="128.25" cy="107.35" r="1.5" fill="none" stroke="blue" stroke-width="0.3"/>
<circle cx="93.75" cy="144.05" r="1.5" fill="none" stroke="blue" stroke-width="0.3"/>
<circle cx="128.25" cy="144.05" r="1.5" fill="none" stroke="blue" stroke-width="0.3"/>
<line x1="107.0" y1="125.7" x2="115.0" y2="125.7" stroke="red" stroke-width="0.15"/>
<line x1="111.0" y1="121.7" x2="111.0" y2="129.7" stroke="red" stroke-width="0.15"/>
<circle cx="96.0" cy="99.7" r="0.85" fill="none" stroke="green" stroke-width="0.25"/>
<circle cx="126.0" cy="99.7" r="0.85" fill="none" stroke="green" stroke-width="0.25"/>
<circle cx="96.0" cy="151.7" r="0.85" fill="none" stroke="green" stroke-width="0.25"/>
<circle cx="126.0" cy="151.7" r="0.85" fill="none" stroke="green" stroke-width="0.25"/>
<text x="111.0" y="104.35" text-anchor="middle" font-family="sans-serif" font-size="2.2" fill="red" font-weight="bold">D1</text>
<rect x="168.75" y="107.35" width="34.5" height="36.7" fill="none" stroke="red" stroke-width="0.5"/>
<circle cx="168.75" cy="107.35" r="1.5" fill="none" stroke="blue" stroke-width="0.3"/>
<circle cx="203.25" cy="107.35" r="1.5" fill="none" stroke="blue" stroke-width="0.3"/>
<circle cx="168.75" cy="144.05" r="1.5" fill="none" stroke="blue" stroke-width="0.3"/>
<circle cx="203.25" cy="144.05" r="1.5" fill="none" stroke="blue" stroke-width="0.3"/>
<line x1="182.0" y1="125.7" x2="190.0" y2="125.7" stroke="red" stroke-width="0.15"/>
<line x1="186.0" y1="121.7" x2="186.0" y2="129.7" stroke="red" stroke-width="0.15"/>
<circle cx="171.0" cy="99.7" r="0.85" fill="none" stroke="green" stroke-width="0.25"/>
<circle cx="201.0" cy="99.7" r="0.85" fill="none" stroke="green" stroke-width="0.25"/>
<circle cx="171.0" cy="151.7" r="0.85" fill="none" stroke="green" stroke-width="0.25"/>
<circle cx="201.0" cy="151.7" r="0.85" fill="none" stroke="green" stroke-width="0.25"/>
<text x="186.0" y="104.35" text-anchor="middle" font-family="sans-serif" font-size="2.2" fill="red" font-weight="bold">D2</text>
<text x="130.25" y="123.7" font-family="sans-serif" font-size="1.8" fill="red">34.5×36.7</text>
<text x="73.5" y="106.75" text-anchor="middle" font-family="sans-serif" font-size="1.8" fill="red">ø12.5</text>
<line x1="111.0" y1="149.05" x2="186.0" y2="149.05" stroke="black" stroke-width="0.2"/>
<line x1="111.0" y1="147.55" x2="111.0" y2="150.55" stroke="black" stroke-width="0.2"/>
<line x1="186.0" y1="147.55" x2="186.0" y2="150.55" stroke="black" stroke-width="0.2"/>
<text x="148.5" y="147.05" text-anchor="middle" font-family="sans-serif" font-size="2">75.0</text>
<line x1="73.5" y1="164.5" x2="223.5" y2="164.5" stroke="black" stroke-width="0.15"/>
<line x1="73.5" y1="163.0" x2="73.5" y2="166.0" stroke="black" stroke-width="0.15"/>
<line x1="148.5" y1="163.0" x2="148.5" y2="166.0" stroke="black" stroke-width="0.15"/>
<line x1="223.5" y1="163.0" x2="223.5" y2="166.0" stroke="black" stroke-width="0.15"/>
<text x="111.0" y="162.5" text-anchor="middle" font-family="sans-serif" font-size="1.8">75</text>
<text x="186.0" y="162.5" text-anchor="middle" font-family="sans-serif" font-size="1.8">75</text>
<rect x="12" y="184" width="135" height="22" fill="none" stroke="#ddd" stroke-width="0.2"/>
<text x="15" y="188" font-family="sans-serif" font-size="2.3" font-weight="bold">Legend</text>
<circle cx="18" cy="192" r="3" fill="none" stroke="red" stroke-width="0.4"/>
<text x="23" y="193" font-family="sans-serif" font-size="2">Cut — ø12.5 buttons/encoders, 34.5×36.7 display (glass pass-through)</text>
<circle cx="18" cy="196.5" r="3" fill="none" stroke="orange" stroke-width="0.3" stroke-dasharray="1.5,1"/>
<text x="23" y="197.5" font-family="sans-serif" font-size="2">LED ring ø24 — washer on top (reference)</text>
<circle cx="18" cy="201" r="1.5" fill="none" stroke="blue" stroke-width="0.3"/>
<text x="23" y="202" font-family="sans-serif" font-size="2">Corner drill ø3 — drill first, Dremel between</text>
<circle cx="18" cy="205" r="0.85" fill="none" stroke="green" stroke-width="0.25"/>
<text x="23" y="206" font-family="sans-serif" font-size="2">Display mount ø1.7 (±15, ±26 from footprint center)</text>
</svg>