solid OpenSCAD_Model
  facet normal 0.9995065603657315 0.03141075907812952 0
    outer loop
      vertex 3 0 1
      vertex 2.9940801852848145 0.18837155858794014 -1
      vertex 2.9940801852848145 0.18837155858794014 1
    endloop
  endfacet
  facet normal 0.9995065603657315 0.03141075907812952 0
    outer loop
      vertex 2.9940801852848145 0.18837155858794014 -1
      vertex 3 0 1
      vertex 3 0 -1
    endloop
  endfacet
  facet normal 0.9955619646030801 0.09410831331851296 0
    outer loop
      vertex 2.9940801852848145 0.18837155858794014 1
      vertex 2.9763441039434335 0.3759997006929128 -1
      vertex 2.9763441039434335 0.3759997006929128 1
    endloop
  endfacet
  facet normal 0.9955619646030801 0.09410831331851296 0
    outer loop
      vertex 2.9763441039434335 0.3759997006929128 -1
      vertex 2.9940801852848145 0.18837155858794014 1
      vertex 2.9940801852848145 0.18837155858794014 -1
    endloop
  endfacet
  facet normal 0.9876883405951377 0.15643446504023095 0
    outer loop
      vertex 2.9763441039434335 0.3759997006929128 1
      vertex 2.946861752186066 0.5621439437571739 -1
      vertex 2.946861752186066 0.5621439437571739 1
    endloop
  endfacet
  facet normal 0.9876883405951377 0.15643446504023095 0
    outer loop
      vertex 2.946861752186066 0.5621439437571739 -1
      vertex 2.9763441039434335 0.3759997006929128 1
      vertex 2.9763441039434335 0.3759997006929128 -1
    endloop
  endfacet
  facet normal 0.9759167619387471 0.2181432413965433 0
    outer loop
      vertex 2.946861752186066 0.5621439437571739 1
      vertex 2.9057494833858932 0.7460696614945643 -1
      vertex 2.9057494833858932 0.7460696614945643 1
    endloop
  endfacet
  facet normal 0.9759167619387471 0.2181432413965433 0
    outer loop
      vertex 2.9057494833858932 0.7460696614945643 -1
      vertex 2.946861752186066 0.5621439437571739 1
      vertex 2.946861752186066 0.5621439437571739 -1
    endloop
  endfacet
  facet normal 0.9602936856769428 0.2789911060392299 0
    outer loop
      vertex 2.9057494833858932 0.7460696614945643 1
      vertex 2.8531695488854605 0.9270509831248421 -1
      vertex 2.8531695488854605 0.9270509831248421 1
    endloop
  endfacet
  facet normal 0.9602936856769428 0.2789911060392299 0
    outer loop
      vertex 2.8531695488854605 0.9270509831248421 -1
      vertex 2.9057494833858932 0.7460696614945643 1
      vertex 2.9057494833858932 0.7460696614945643 -1
    endloop
  endfacet
  facet normal 0.9408807689542257 0.33873792024529065 0
    outer loop
      vertex 2.8531695488854605 0.9270509831248421 1
      vertex 2.789329457664754 1.104373658054034 -1
      vertex 2.789329457664754 1.104373658054034 1
    endloop
  endfacet
  facet normal 0.9408807689542257 0.33873792024529065 0
    outer loop
      vertex 2.789329457664754 1.104373658054034 -1
      vertex 2.8531695488854605 0.9270509831248421 1
      vertex 2.8531695488854605 0.9270509831248421 -1
    endloop
  endfacet
  facet normal 0.9177546256839816 0.3971478906347793 0
    outer loop
      vertex 2.789329457664754 1.104373658054034 1
      vertex 2.7144811573980587 1.277337874695218 -1
      vertex 2.7144811573980587 1.277337874695218 1
    endloop
  endfacet
  facet normal 0.9177546256839816 0.3971478906347793 0
    outer loop
      vertex 2.7144811573980587 1.277337874695218 -1
      vertex 2.789329457664754 1.104373658054034 1
      vertex 2.789329457664754 1.104373658054034 -1
    endloop
  endfacet
  facet normal 0.891006524188368 0.4539904997395465 0
    outer loop
      vertex 2.7144811573980587 1.277337874695218 1
      vertex 2.628920040131591 1.445261022305146 -1
      vertex 2.628920040131591 1.445261022305146 1
    endloop
  endfacet
  facet normal 0.891006524188368 0.4539904997395465 0
    outer loop
      vertex 2.628920040131591 1.445261022305146 -1
      vertex 2.7144811573980587 1.277337874695218 1
      vertex 2.7144811573980587 1.277337874695218 -1
    endloop
  endfacet
  facet normal 0.8607420270039428 0.5090414157503726 0
    outer loop
      vertex 2.628920040131591 1.445261022305146 1
      vertex 2.532983776506045 1.60748038493699 -1
      vertex 2.532983776506045 1.60748038493699 1
    endloop
  endfacet
  facet normal 0.8607420270039428 0.5090414157503726 0
    outer loop
      vertex 2.532983776506045 1.60748038493699 -1
      vertex 2.628920040131591 1.445261022305146 1
      vertex 2.628920040131591 1.445261022305146 -1
    endloop
  endfacet
  facet normal 0.8270805742745623 0.5620833778521299 0
    outer loop
      vertex 2.532983776506045 1.60748038493699 1
      vertex 2.4270509831248424 1.7633557568774194 -1
      vertex 2.4270509831248424 1.7633557568774194 1
    endloop
  endfacet
  facet normal 0.8270805742745623 0.5620833778521299 0
    outer loop
      vertex 2.4270509831248424 1.7633557568774194 -1
      vertex 2.532983776506045 1.60748038493699 1
      vertex 2.532983776506045 1.60748038493699 -1
    endloop
  endfacet
  facet normal 0.79015501237569 0.612907053652977 0
    outer loop
      vertex 2.4270509831248424 1.7633557568774194 1
      vertex 2.3115397283273675 1.9122719692460692 -1
      vertex 2.3115397283273675 1.9122719692460692 1
    endloop
  endfacet
  facet normal 0.79015501237569 0.612907053652977 0
    outer loop
      vertex 2.3115397283273675 1.9122719692460692 -1
      vertex 2.4270509831248424 1.7633557568774194 1
      vertex 2.4270509831248424 1.7633557568774194 -1
    endloop
  endfacet
  facet normal 0.7501110696304596 0.6613118653236516 0
    outer loop
      vertex 2.3115397283273675 1.9122719692460692 1
      vertex 2.1869058822642344 2.053641317786066 -1
      vertex 2.1869058822642344 2.053641317786066 1
    endloop
  endfacet
  facet normal 0.7501110696304596 0.6613118653236516 0
    outer loop
      vertex 2.1869058822642344 2.053641317786066 -1
      vertex 2.3115397283273675 1.9122719692460692 1
      vertex 2.3115397283273675 1.9122719692460692 -1
    endloop
  endfacet
  facet normal 0.7071067811865475 0.7071067811865475 0
    outer loop
      vertex 2.1869058822642344 2.053641317786066 1
      vertex 2.053641317786066 2.1869058822642344 -1
      vertex 2.053641317786066 2.1869058822642344 1
    endloop
  endfacet
  facet normal 0.7071067811865475 0.7071067811865475 0
    outer loop
      vertex 2.053641317786066 2.1869058822642344 -1
      vertex 2.1869058822642344 2.053641317786066 1
      vertex 2.1869058822642344 2.053641317786066 -1
    endloop
  endfacet
  facet normal 0.6613118653236516 0.7501110696304596 0
    outer loop
      vertex 2.053641317786066 2.1869058822642344 -1
      vertex 1.9122719692460692 2.3115397283273675 1
      vertex 2.053641317786066 2.1869058822642344 1
    endloop
  endfacet
  facet normal 0.6613118653236516 0.7501110696304596 0
    outer loop
      vertex 1.9122719692460692 2.3115397283273675 1
      vertex 2.053641317786066 2.1869058822642344 -1
      vertex 1.9122719692460692 2.3115397283273675 -1
    endloop
  endfacet
  facet normal 0.612907053652977 0.79015501237569 0
    outer loop
      vertex 1.9122719692460692 2.3115397283273675 -1
      vertex 1.7633557568774194 2.4270509831248424 1
      vertex 1.9122719692460692 2.3115397283273675 1
    endloop
  endfacet
  facet normal 0.612907053652977 0.79015501237569 0
    outer loop
      vertex 1.7633557568774194 2.4270509831248424 1
      vertex 1.9122719692460692 2.3115397283273675 -1
      vertex 1.7633557568774194 2.4270509831248424 -1
    endloop
  endfacet
  facet normal 0.5620833778521299 0.8270805742745623 0
    outer loop
      vertex 1.7633557568774194 2.4270509831248424 -1
      vertex 1.60748038493699 2.532983776506045 1
      vertex 1.7633557568774194 2.4270509831248424 1
    endloop
  endfacet
  facet normal 0.5620833778521299 0.8270805742745623 0
    outer loop
      vertex 1.60748038493699 2.532983776506045 1
      vertex 1.7633557568774194 2.4270509831248424 -1
      vertex 1.60748038493699 2.532983776506045 -1
    endloop
  endfacet
  facet normal 0.5090414157503717 0.8607420270039434 0
    outer loop
      vertex 1.60748038493699 2.532983776506045 -1
      vertex 1.4452610223051456 2.628920040131591 1
      vertex 1.60748038493699 2.532983776506045 1
    endloop
  endfacet
  facet normal 0.5090414157503717 0.8607420270039434 0
    outer loop
      vertex 1.4452610223051456 2.628920040131591 1
      vertex 1.60748038493699 2.532983776506045 -1
      vertex 1.4452610223051456 2.628920040131591 -1
    endloop
  endfacet
  facet normal 0.453990499739546 0.8910065241883682 0
    outer loop
      vertex 1.4452610223051456 2.628920040131591 -1
      vertex 1.2773378746952182 2.7144811573980583 1
      vertex 1.4452610223051456 2.628920040131591 1
    endloop
  endfacet
  facet normal 0.453990499739546 0.8910065241883682 0
    outer loop
      vertex 1.2773378746952182 2.7144811573980583 1
      vertex 1.4452610223051456 2.628920040131591 -1
      vertex 1.2773378746952182 2.7144811573980583 -1
    endloop
  endfacet
  facet normal 0.397147890634782 0.9177546256839806 0
    outer loop
      vertex 1.2773378746952182 2.7144811573980583 -1
      vertex 1.1043736580540335 2.7893294576647545 1
      vertex 1.2773378746952182 2.7144811573980583 1
    endloop
  endfacet
  facet normal 0.397147890634782 0.9177546256839806 0
    outer loop
      vertex 1.1043736580540335 2.7893294576647545 1
      vertex 1.2773378746952182 2.7144811573980583 -1
      vertex 1.1043736580540335 2.7893294576647545 -1
    endloop
  endfacet
  facet normal 0.33873792024528937 0.9408807689542262 0
    outer loop
      vertex 1.1043736580540335 2.7893294576647545 -1
      vertex 0.9270509831248421 2.8531695488854605 1
      vertex 1.1043736580540335 2.7893294576647545 1
    endloop
  endfacet
  facet normal 0.33873792024528937 0.9408807689542262 0
    outer loop
      vertex 0.9270509831248421 2.8531695488854605 1
      vertex 1.1043736580540335 2.7893294576647545 -1
      vertex 0.9270509831248421 2.8531695488854605 -1
    endloop
  endfacet
  facet normal 0.2789911060392302 0.9602936856769428 0
    outer loop
      vertex 0.9270509831248421 2.8531695488854605 -1
      vertex 0.7460696614945646 2.9057494833858932 1
      vertex 0.9270509831248421 2.8531695488854605 1
    endloop
  endfacet
  facet normal 0.2789911060392302 0.9602936856769428 0
    outer loop
      vertex 0.7460696614945646 2.9057494833858932 1
      vertex 0.9270509831248421 2.8531695488854605 -1
      vertex 0.7460696614945646 2.9057494833858932 -1
    endloop
  endfacet
  facet normal 0.21814324139654281 0.9759167619387473 0
    outer loop
      vertex 0.7460696614945646 2.9057494833858932 -1
      vertex 0.5621439437571737 2.946861752186066 1
      vertex 0.7460696614945646 2.9057494833858932 1
    endloop
  endfacet
  facet normal 0.21814324139654281 0.9759167619387473 0
    outer loop
      vertex 0.5621439437571737 2.946861752186066 1
      vertex 0.7460696614945646 2.9057494833858932 -1
      vertex 0.5621439437571737 2.946861752186066 -1
    endloop
  endfacet
  facet normal 0.15643446504023123 0.9876883405951377 0
    outer loop
      vertex 0.5621439437571737 2.946861752186066 -1
      vertex 0.3759997006929129 2.9763441039434335 1
      vertex 0.5621439437571737 2.946861752186066 1
    endloop
  endfacet
  facet normal 0.15643446504023123 0.9876883405951377 0
    outer loop
      vertex 0.3759997006929129 2.9763441039434335 1
      vertex 0.5621439437571737 2.946861752186066 -1
      vertex 0.3759997006929129 2.9763441039434335 -1
    endloop
  endfacet
  facet normal 0.09410831331851277 0.9955619646030802 0
    outer loop
      vertex 0.3759997006929129 2.9763441039434335 -1
      vertex 0.18837155858793983 2.9940801852848145 1
      vertex 0.3759997006929129 2.9763441039434335 1
    endloop
  endfacet
  facet normal 0.09410831331851277 0.9955619646030802 0
    outer loop
      vertex 0.18837155858793983 2.9940801852848145 1
      vertex 0.3759997006929129 2.9763441039434335 -1
      vertex 0.18837155858793983 2.9940801852848145 -1
    endloop
  endfacet
  facet normal 0.03141075907812957 0.9995065603657315 0
    outer loop
      vertex 0.18837155858793983 2.9940801852848145 -1
      vertex 0 3 1
      vertex 0.18837155858793983 2.9940801852848145 1
    endloop
  endfacet
  facet normal 0.03141075907812957 0.9995065603657315 0
    outer loop
      vertex 0 3 1
      vertex 0.18837155858793983 2.9940801852848145 -1
      vertex 0 3 -1
    endloop
  endfacet
  facet normal -0.03141075907812957 0.9995065603657315 0
    outer loop
      vertex 0 3 -1
      vertex -0.18837155858793983 2.9940801852848145 1
      vertex 0 3 1
    endloop
  endfacet
  facet normal -0.03141075907812957 0.9995065603657315 0
    outer loop
      vertex -0.18837155858793983 2.9940801852848145 1
      vertex 0 3 -1
      vertex -0.18837155858793983 2.9940801852848145 -1
    endloop
  endfacet
  facet normal -0.09410831331851277 0.9955619646030802 0
    outer loop
      vertex -0.18837155858793983 2.9940801852848145 -1
      vertex -0.3759997006929129 2.9763441039434335 1
      vertex -0.18837155858793983 2.9940801852848145 1
    endloop
  endfacet
  facet normal -0.09410831331851277 0.9955619646030802 0
    outer loop
      vertex -0.3759997006929129 2.9763441039434335 1
      vertex -0.18837155858793983 2.9940801852848145 -1
      vertex -0.3759997006929129 2.9763441039434335 -1
    endloop
  endfacet
  facet normal -0.15643446504023123 0.9876883405951377 0
    outer loop
      vertex -0.3759997006929129 2.9763441039434335 -1
      vertex -0.5621439437571737 2.946861752186066 1
      vertex -0.3759997006929129 2.9763441039434335 1
    endloop
  endfacet
  facet normal -0.15643446504023123 0.9876883405951377 0
    outer loop
      vertex -0.5621439437571737 2.946861752186066 1
      vertex -0.3759997006929129 2.9763441039434335 -1
      vertex -0.5621439437571737 2.946861752186066 -1
    endloop
  endfacet
  facet normal -0.21814324139654281 0.9759167619387473 0
    outer loop
      vertex -0.5621439437571737 2.946861752186066 -1
      vertex -0.7460696614945646 2.9057494833858932 1
      vertex -0.5621439437571737 2.946861752186066 1
    endloop
  endfacet
  facet normal -0.21814324139654281 0.9759167619387473 0
    outer loop
      vertex -0.7460696614945646 2.9057494833858932 1
      vertex -0.5621439437571737 2.946861752186066 -1
      vertex -0.7460696614945646 2.9057494833858932 -1
    endloop
  endfacet
  facet normal -0.2789911060392302 0.9602936856769428 0
    outer loop
      vertex -0.7460696614945646 2.9057494833858932 -1
      vertex -0.9270509831248421 2.8531695488854605 1
      vertex -0.7460696614945646 2.9057494833858932 1
    endloop
  endfacet
  facet normal -0.2789911060392302 0.9602936856769428 0
    outer loop
      vertex -0.9270509831248421 2.8531695488854605 1
      vertex -0.7460696614945646 2.9057494833858932 -1
      vertex -0.9270509831248421 2.8531695488854605 -1
    endloop
  endfacet
  facet normal -0.33873792024528937 0.9408807689542262 0
    outer loop
      vertex -0.9270509831248421 2.8531695488854605 -1
      vertex -1.1043736580540335 2.7893294576647545 1
      vertex -0.9270509831248421 2.8531695488854605 1
    endloop
  endfacet
  facet normal -0.33873792024528937 0.9408807689542262 0
    outer loop
      vertex -1.1043736580540335 2.7893294576647545 1
      vertex -0.9270509831248421 2.8531695488854605 -1
      vertex -1.1043736580540335 2.7893294576647545 -1
    endloop
  endfacet
  facet normal -0.397147890634782 0.9177546256839806 0
    outer loop
      vertex -1.1043736580540335 2.7893294576647545 -1
      vertex -1.2773378746952182 2.7144811573980583 1
      vertex -1.1043736580540335 2.7893294576647545 1
    endloop
  endfacet
  facet normal -0.397147890634782 0.9177546256839806 0
    outer loop
      vertex -1.2773378746952182 2.7144811573980583 1
      vertex -1.1043736580540335 2.7893294576647545 -1
      vertex -1.2773378746952182 2.7144811573980583 -1
    endloop
  endfacet
  facet normal -0.453990499739546 0.8910065241883682 0
    outer loop
      vertex -1.2773378746952182 2.7144811573980583 -1
      vertex -1.4452610223051456 2.628920040131591 1
      vertex -1.2773378746952182 2.7144811573980583 1
    endloop
  endfacet
  facet normal -0.453990499739546 0.8910065241883682 0
    outer loop
      vertex -1.4452610223051456 2.628920040131591 1
      vertex -1.2773378746952182 2.7144811573980583 -1
      vertex -1.4452610223051456 2.628920040131591 -1
    endloop
  endfacet
  facet normal -0.5090414157503711 0.8607420270039436 0
    outer loop
      vertex -1.4452610223051456 2.628920040131591 -1
      vertex -1.6074803849369903 2.532983776506045 1
      vertex -1.4452610223051456 2.628920040131591 1
    endloop
  endfacet
  facet normal -0.5090414157503711 0.8607420270039436 0
    outer loop
      vertex -1.6074803849369903 2.532983776506045 1
      vertex -1.4452610223051456 2.628920040131591 -1
      vertex -1.6074803849369903 2.532983776506045 -1
    endloop
  endfacet
  facet normal -0.5620833778521305 0.8270805742745618 0
    outer loop
      vertex -1.6074803849369903 2.532983776506045 -1
      vertex -1.7633557568774194 2.4270509831248424 1
      vertex -1.6074803849369903 2.532983776506045 1
    endloop
  endfacet
  facet normal -0.5620833778521305 0.8270805742745618 0
    outer loop
      vertex -1.7633557568774194 2.4270509831248424 1
      vertex -1.6074803849369903 2.532983776506045 -1
      vertex -1.7633557568774194 2.4270509831248424 -1
    endloop
  endfacet
  facet normal -0.6129070536529767 0.7901550123756901 0
    outer loop
      vertex -1.7633557568774194 2.4270509831248424 -1
      vertex -1.9122719692460688 2.311539728327368 1
      vertex -1.7633557568774194 2.4270509831248424 1
    endloop
  endfacet
  facet normal -0.6129070536529767 0.7901550123756901 0
    outer loop
      vertex -1.9122719692460688 2.311539728327368 1
      vertex -1.7633557568774194 2.4270509831248424 -1
      vertex -1.9122719692460688 2.311539728327368 -1
    endloop
  endfacet
  facet normal -0.6613118653236516 0.7501110696304596 0
    outer loop
      vertex -1.9122719692460688 2.311539728327368 -1
      vertex -2.0536413177860657 2.186905882264235 1
      vertex -1.9122719692460688 2.311539728327368 1
    endloop
  endfacet
  facet normal -0.6613118653236516 0.7501110696304596 0
    outer loop
      vertex -2.0536413177860657 2.186905882264235 1
      vertex -1.9122719692460688 2.311539728327368 -1
      vertex -2.0536413177860657 2.186905882264235 -1
    endloop
  endfacet
  facet normal -0.7071067811865475 0.7071067811865475 0
    outer loop
      vertex -2.186905882264235 2.0536413177860657 -1
      vertex -2.0536413177860657 2.186905882264235 1
      vertex -2.0536413177860657 2.186905882264235 -1
    endloop
  endfacet
  facet normal -0.7071067811865475 0.7071067811865475 0
    outer loop
      vertex -2.0536413177860657 2.186905882264235 1
      vertex -2.186905882264235 2.0536413177860657 -1
      vertex -2.186905882264235 2.0536413177860657 1
    endloop
  endfacet
  facet normal -0.7501110696304596 0.6613118653236516 0
    outer loop
      vertex -2.311539728327368 1.9122719692460688 -1
      vertex -2.186905882264235 2.0536413177860657 1
      vertex -2.186905882264235 2.0536413177860657 -1
    endloop
  endfacet
  facet normal -0.7501110696304596 0.6613118653236516 0
    outer loop
      vertex -2.186905882264235 2.0536413177860657 1
      vertex -2.311539728327368 1.9122719692460688 -1
      vertex -2.311539728327368 1.9122719692460688 1
    endloop
  endfacet
  facet normal -0.7901550123756901 0.6129070536529767 0
    outer loop
      vertex -2.4270509831248424 1.7633557568774194 -1
      vertex -2.311539728327368 1.9122719692460688 1
      vertex -2.311539728327368 1.9122719692460688 -1
    endloop
  endfacet
  facet normal -0.7901550123756901 0.6129070536529767 0
    outer loop
      vertex -2.311539728327368 1.9122719692460688 1
      vertex -2.4270509831248424 1.7633557568774194 -1
      vertex -2.4270509831248424 1.7633557568774194 1
    endloop
  endfacet
  facet normal -0.8270805742745618 0.5620833778521305 0
    outer loop
      vertex -2.532983776506045 1.6074803849369903 -1
      vertex -2.4270509831248424 1.7633557568774194 1
      vertex -2.4270509831248424 1.7633557568774194 -1
    endloop
  endfacet
  facet normal -0.8270805742745618 0.5620833778521305 0
    outer loop
      vertex -2.4270509831248424 1.7633557568774194 1
      vertex -2.532983776506045 1.6074803849369903 -1
      vertex -2.532983776506045 1.6074803849369903 1
    endloop
  endfacet
  facet normal -0.8607420270039442 0.5090414157503704 0
    outer loop
      vertex -2.6289200401315904 1.445261022305146 -1
      vertex -2.532983776506045 1.6074803849369903 1
      vertex -2.532983776506045 1.6074803849369903 -1
    endloop
  endfacet
  facet normal -0.8607420270039442 0.5090414157503704 0
    outer loop
      vertex -2.532983776506045 1.6074803849369903 1
      vertex -2.6289200401315904 1.445261022305146 -1
      vertex -2.6289200401315904 1.445261022305146 1
    endloop
  endfacet
  facet normal -0.8910065241883678 0.45399049973954697 0
    outer loop
      vertex -2.7144811573980587 1.2773378746952173 -1
      vertex -2.6289200401315904 1.445261022305146 1
      vertex -2.6289200401315904 1.445261022305146 -1
    endloop
  endfacet
  facet normal -0.8910065241883678 0.45399049973954697 0
    outer loop
      vertex -2.6289200401315904 1.445261022305146 1
      vertex -2.7144811573980587 1.2773378746952173 -1
      vertex -2.7144811573980587 1.2773378746952173 1
    endloop
  endfacet
  facet normal -0.9177546256839807 0.3971478906347818 0
    outer loop
      vertex -2.7893294576647545 1.1043736580540335 -1
      vertex -2.7144811573980587 1.2773378746952173 1
      vertex -2.7144811573980587 1.2773378746952173 -1
    endloop
  endfacet
  facet normal -0.9177546256839807 0.3971478906347818 0
    outer loop
      vertex -2.7144811573980587 1.2773378746952173 1
      vertex -2.7893294576647545 1.1043736580540335 -1
      vertex -2.7893294576647545 1.1043736580540335 1
    endloop
  endfacet
  facet normal -0.9408807689542262 0.33873792024528937 0
    outer loop
      vertex -2.8531695488854605 0.9270509831248421 -1
      vertex -2.7893294576647545 1.1043736580540335 1
      vertex -2.7893294576647545 1.1043736580540335 -1
    endloop
  endfacet
  facet normal -0.9408807689542262 0.33873792024528937 0
    outer loop
      vertex -2.7893294576647545 1.1043736580540335 1
      vertex -2.8531695488854605 0.9270509831248421 -1
      vertex -2.8531695488854605 0.9270509831248421 1
    endloop
  endfacet
  facet normal -0.9602936856769428 0.2789911060392302 0
    outer loop
      vertex -2.9057494833858932 0.7460696614945646 -1
      vertex -2.8531695488854605 0.9270509831248421 1
      vertex -2.8531695488854605 0.9270509831248421 -1
    endloop
  endfacet
  facet normal -0.9602936856769428 0.2789911060392302 0
    outer loop
      vertex -2.8531695488854605 0.9270509831248421 1
      vertex -2.9057494833858932 0.7460696614945646 -1
      vertex -2.9057494833858932 0.7460696614945646 1
    endloop
  endfacet
  facet normal -0.9759167619387477 0.21814324139654145 0
    outer loop
      vertex -2.9468617521860656 0.5621439437571745 -1
      vertex -2.9057494833858932 0.7460696614945646 1
      vertex -2.9057494833858932 0.7460696614945646 -1
    endloop
  endfacet
  facet normal -0.9759167619387477 0.21814324139654145 0
    outer loop
      vertex -2.9057494833858932 0.7460696614945646 1
      vertex -2.9468617521860656 0.5621439437571745 -1
      vertex -2.9468617521860656 0.5621439437571745 1
    endloop
  endfacet
  facet normal -0.9876883405951374 0.15643446504023234 0
    outer loop
      vertex -2.9763441039434335 0.3759997006929122 -1
      vertex -2.9468617521860656 0.5621439437571745 1
      vertex -2.9468617521860656 0.5621439437571745 -1
    endloop
  endfacet
  facet normal -0.9876883405951374 0.15643446504023234 0
    outer loop
      vertex -2.9468617521860656 0.5621439437571745 1
      vertex -2.9763441039434335 0.3759997006929122 -1
      vertex -2.9763441039434335 0.3759997006929122 1
    endloop
  endfacet
  facet normal -0.9955619646030801 0.09410831331851309 0
    outer loop
      vertex -2.9940801852848145 0.18837155858793983 -1
      vertex -2.9763441039434335 0.3759997006929122 1
      vertex -2.9763441039434335 0.3759997006929122 -1
    endloop
  endfacet
  facet normal -0.9955619646030801 0.09410831331851309 0
    outer loop
      vertex -2.9763441039434335 0.3759997006929122 1
      vertex -2.9940801852848145 0.18837155858793983 -1
      vertex -2.9940801852848145 0.18837155858793983 1
    endloop
  endfacet
  facet normal -0.9995065603657315 0.03141075907812957 0
    outer loop
      vertex -3 0 -1
      vertex -2.9940801852848145 0.18837155858793983 1
      vertex -2.9940801852848145 0.18837155858793983 -1
    endloop
  endfacet
  facet normal -0.9995065603657315 0.03141075907812957 0
    outer loop
      vertex -2.9940801852848145 0.18837155858793983 1
      vertex -3 0 -1
      vertex -3 0 1
    endloop
  endfacet
  facet normal -0.9995065603657315 -0.03141075907812957 0
    outer loop
      vertex -2.9940801852848145 -0.18837155858793983 -1
      vertex -3 0 1
      vertex -3 0 -1
    endloop
  endfacet
  facet normal -0.9995065603657315 -0.03141075907812957 0
    outer loop
      vertex -3 0 1
      vertex -2.9940801852848145 -0.18837155858793983 -1
      vertex -2.9940801852848145 -0.18837155858793983 1
    endloop
  endfacet
  facet normal -0.9955619646030801 -0.09410831331851309 0
    outer loop
      vertex -2.9763441039434335 -0.3759997006929122 -1
      vertex -2.9940801852848145 -0.18837155858793983 1
      vertex -2.9940801852848145 -0.18837155858793983 -1
    endloop
  endfacet
  facet normal -0.9955619646030801 -0.09410831331851309 0
    outer loop
      vertex -2.9940801852848145 -0.18837155858793983 1
      vertex -2.9763441039434335 -0.3759997006929122 -1
      vertex -2.9763441039434335 -0.3759997006929122 1
    endloop
  endfacet
  facet normal -0.9876883405951374 -0.15643446504023234 0
    outer loop
      vertex -2.9468617521860656 -0.5621439437571745 -1
      vertex -2.9763441039434335 -0.3759997006929122 1
      vertex -2.9763441039434335 -0.3759997006929122 -1
    endloop
  endfacet
  facet normal -0.9876883405951374 -0.15643446504023234 0
    outer loop
      vertex -2.9763441039434335 -0.3759997006929122 1
      vertex -2.9468617521860656 -0.5621439437571745 -1
      vertex -2.9468617521860656 -0.5621439437571745 1
    endloop
  endfacet
  facet normal -0.9759167619387477 -0.21814324139654145 0
    outer loop
      vertex -2.9057494833858932 -0.7460696614945646 -1
      vertex -2.9468617521860656 -0.5621439437571745 1
      vertex -2.9468617521860656 -0.5621439437571745 -1
    endloop
  endfacet
  facet normal -0.9759167619387477 -0.21814324139654145 0
    outer loop
      vertex -2.9468617521860656 -0.5621439437571745 1
      vertex -2.9057494833858932 -0.7460696614945646 -1
      vertex -2.9057494833858932 -0.7460696614945646 1
    endloop
  endfacet
  facet normal -0.9602936856769428 -0.2789911060392302 0
    outer loop
      vertex -2.8531695488854605 -0.9270509831248421 -1
      vertex -2.9057494833858932 -0.7460696614945646 1
      vertex -2.9057494833858932 -0.7460696614945646 -1
    endloop
  endfacet
  facet normal -0.9602936856769428 -0.2789911060392302 0
    outer loop
      vertex -2.9057494833858932 -0.7460696614945646 1
      vertex -2.8531695488854605 -0.9270509831248421 -1
      vertex -2.8531695488854605 -0.9270509831248421 1
    endloop
  endfacet
  facet normal -0.9408807689542262 -0.33873792024528937 0
    outer loop
      vertex -2.7893294576647545 -1.1043736580540335 -1
      vertex -2.8531695488854605 -0.9270509831248421 1
      vertex -2.8531695488854605 -0.9270509831248421 -1
    endloop
  endfacet
  facet normal -0.9408807689542262 -0.33873792024528937 0
    outer loop
      vertex -2.8531695488854605 -0.9270509831248421 1
      vertex -2.7893294576647545 -1.1043736580540335 -1
      vertex -2.7893294576647545 -1.1043736580540335 1
    endloop
  endfacet
  facet normal -0.9177546256839807 -0.3971478906347818 0
    outer loop
      vertex -2.7144811573980587 -1.2773378746952173 -1
      vertex -2.7893294576647545 -1.1043736580540335 1
      vertex -2.7893294576647545 -1.1043736580540335 -1
    endloop
  endfacet
  facet normal -0.9177546256839807 -0.3971478906347818 0
    outer loop
      vertex -2.7893294576647545 -1.1043736580540335 1
      vertex -2.7144811573980587 -1.2773378746952173 -1
      vertex -2.7144811573980587 -1.2773378746952173 1
    endloop
  endfacet
  facet normal -0.8910065241883678 -0.45399049973954697 0
    outer loop
      vertex -2.6289200401315904 -1.445261022305146 -1
      vertex -2.7144811573980587 -1.2773378746952173 1
      vertex -2.7144811573980587 -1.2773378746952173 -1
    endloop
  endfacet
  facet normal -0.8910065241883678 -0.45399049973954697 0
    outer loop
      vertex -2.7144811573980587 -1.2773378746952173 1
      vertex -2.6289200401315904 -1.445261022305146 -1
      vertex -2.6289200401315904 -1.445261022305146 1
    endloop
  endfacet
  facet normal -0.8607420270039442 -0.5090414157503704 0
    outer loop
      vertex -2.532983776506045 -1.6074803849369903 -1
      vertex -2.6289200401315904 -1.445261022305146 1
      vertex -2.6289200401315904 -1.445261022305146 -1
    endloop
  endfacet
  facet normal -0.8607420270039442 -0.5090414157503704 0
    outer loop
      vertex -2.6289200401315904 -1.445261022305146 1
      vertex -2.532983776506045 -1.6074803849369903 -1
      vertex -2.532983776506045 -1.6074803849369903 1
    endloop
  endfacet
  facet normal -0.8270805742745618 -0.5620833778521305 0
    outer loop
      vertex -2.4270509831248424 -1.7633557568774194 -1
      vertex -2.532983776506045 -1.6074803849369903 1
      vertex -2.532983776506045 -1.6074803849369903 -1
    endloop
  endfacet
  facet normal -0.8270805742745618 -0.5620833778521305 0
    outer loop
      vertex -2.532983776506045 -1.6074803849369903 1
      vertex -2.4270509831248424 -1.7633557568774194 -1
      vertex -2.4270509831248424 -1.7633557568774194 1
    endloop
  endfacet
  facet normal -0.7901550123756901 -0.6129070536529767 0
    outer loop
      vertex -2.311539728327368 -1.9122719692460688 -1
      vertex -2.4270509831248424 -1.7633557568774194 1
      vertex -2.4270509831248424 -1.7633557568774194 -1
    endloop
  endfacet
  facet normal -0.7901550123756901 -0.6129070536529767 0
    outer loop
      vertex -2.4270509831248424 -1.7633557568774194 1
      vertex -2.311539728327368 -1.9122719692460688 -1
      vertex -2.311539728327368 -1.9122719692460688 1
    endloop
  endfacet
  facet normal -0.7501110696304596 -0.6613118653236516 0
    outer loop
      vertex -2.186905882264235 -2.0536413177860657 -1
      vertex -2.311539728327368 -1.9122719692460688 1
      vertex -2.311539728327368 -1.9122719692460688 -1
    endloop
  endfacet
  facet normal -0.7501110696304596 -0.6613118653236516 0
    outer loop
      vertex -2.311539728327368 -1.9122719692460688 1
      vertex -2.186905882264235 -2.0536413177860657 -1
      vertex -2.186905882264235 -2.0536413177860657 1
    endloop
  endfacet
  facet normal -0.7071067811865475 -0.7071067811865475 0
    outer loop
      vertex -2.0536413177860657 -2.186905882264235 -1
      vertex -2.186905882264235 -2.0536413177860657 1
      vertex -2.186905882264235 -2.0536413177860657 -1
    endloop
  endfacet
  facet normal -0.7071067811865475 -0.7071067811865475 0
    outer loop
      vertex -2.186905882264235 -2.0536413177860657 1
      vertex -2.0536413177860657 -2.186905882264235 -1
      vertex -2.0536413177860657 -2.186905882264235 1
    endloop
  endfacet
  facet normal -0.6613118653236516 -0.7501110696304596 0
    outer loop
      vertex -2.0536413177860657 -2.186905882264235 -1
      vertex -1.9122719692460688 -2.311539728327368 1
      vertex -2.0536413177860657 -2.186905882264235 1
    endloop
  endfacet
  facet normal -0.6613118653236516 -0.7501110696304596 0
    outer loop
      vertex -1.9122719692460688 -2.311539728327368 1
      vertex -2.0536413177860657 -2.186905882264235 -1
      vertex -1.9122719692460688 -2.311539728327368 -1
    endloop
  endfacet
  facet normal -0.6129070536529767 -0.7901550123756901 0
    outer loop
      vertex -1.9122719692460688 -2.311539728327368 -1
      vertex -1.7633557568774194 -2.4270509831248424 1
      vertex -1.9122719692460688 -2.311539728327368 1
    endloop
  endfacet
  facet normal -0.6129070536529767 -0.7901550123756901 0
    outer loop
      vertex -1.7633557568774194 -2.4270509831248424 1
      vertex -1.9122719692460688 -2.311539728327368 -1
      vertex -1.7633557568774194 -2.4270509831248424 -1
    endloop
  endfacet
  facet normal -0.5620833778521305 -0.8270805742745618 0
    outer loop
      vertex -1.7633557568774194 -2.4270509831248424 -1
      vertex -1.6074803849369903 -2.532983776506045 1
      vertex -1.7633557568774194 -2.4270509831248424 1
    endloop
  endfacet
  facet normal -0.5620833778521305 -0.8270805742745618 0
    outer loop
      vertex -1.6074803849369903 -2.532983776506045 1
      vertex -1.7633557568774194 -2.4270509831248424 -1
      vertex -1.6074803849369903 -2.532983776506045 -1
    endloop
  endfacet
  facet normal -0.5090414157503704 -0.8607420270039442 0
    outer loop
      vertex -1.6074803849369903 -2.532983776506045 -1
      vertex -1.445261022305146 -2.6289200401315904 1
      vertex -1.6074803849369903 -2.532983776506045 1
    endloop
  endfacet
  facet normal -0.5090414157503704 -0.8607420270039442 0
    outer loop
      vertex -1.445261022305146 -2.6289200401315904 1
      vertex -1.6074803849369903 -2.532983776506045 -1
      vertex -1.445261022305146 -2.6289200401315904 -1
    endloop
  endfacet
  facet normal -0.45399049973954697 -0.8910065241883678 0
    outer loop
      vertex -1.445261022305146 -2.6289200401315904 -1
      vertex -1.2773378746952173 -2.7144811573980587 1
      vertex -1.445261022305146 -2.6289200401315904 1
    endloop
  endfacet
  facet normal -0.45399049973954697 -0.8910065241883678 0
    outer loop
      vertex -1.2773378746952173 -2.7144811573980587 1
      vertex -1.445261022305146 -2.6289200401315904 -1
      vertex -1.2773378746952173 -2.7144811573980587 -1
    endloop
  endfacet
  facet normal -0.3971478906347818 -0.9177546256839807 0
    outer loop
      vertex -1.2773378746952173 -2.7144811573980587 -1
      vertex -1.1043736580540335 -2.7893294576647545 1
      vertex -1.2773378746952173 -2.7144811573980587 1
    endloop
  endfacet
  facet normal -0.3971478906347818 -0.9177546256839807 0
    outer loop
      vertex -1.1043736580540335 -2.7893294576647545 1
      vertex -1.2773378746952173 -2.7144811573980587 -1
      vertex -1.1043736580540335 -2.7893294576647545 -1
    endloop
  endfacet
  facet normal -0.33873792024528937 -0.9408807689542262 0
    outer loop
      vertex -1.1043736580540335 -2.7893294576647545 -1
      vertex -0.9270509831248421 -2.8531695488854605 1
      vertex -1.1043736580540335 -2.7893294576647545 1
    endloop
  endfacet
  facet normal -0.33873792024528937 -0.9408807689542262 0
    outer loop
      vertex -0.9270509831248421 -2.8531695488854605 1
      vertex -1.1043736580540335 -2.7893294576647545 -1
      vertex -0.9270509831248421 -2.8531695488854605 -1
    endloop
  endfacet
  facet normal -0.2789911060392302 -0.9602936856769428 0
    outer loop
      vertex -0.9270509831248421 -2.8531695488854605 -1
      vertex -0.7460696614945646 -2.9057494833858932 1
      vertex -0.9270509831248421 -2.8531695488854605 1
    endloop
  endfacet
  facet normal -0.2789911060392302 -0.9602936856769428 0
    outer loop
      vertex -0.7460696614945646 -2.9057494833858932 1
      vertex -0.9270509831248421 -2.8531695488854605 -1
      vertex -0.7460696614945646 -2.9057494833858932 -1
    endloop
  endfacet
  facet normal -0.21814324139654145 -0.9759167619387477 0
    outer loop
      vertex -0.7460696614945646 -2.9057494833858932 -1
      vertex -0.5621439437571745 -2.9468617521860656 1
      vertex -0.7460696614945646 -2.9057494833858932 1
    endloop
  endfacet
  facet normal -0.21814324139654145 -0.9759167619387477 0
    outer loop
      vertex -0.5621439437571745 -2.9468617521860656 1
      vertex -0.7460696614945646 -2.9057494833858932 -1
      vertex -0.5621439437571745 -2.9468617521860656 -1
    endloop
  endfacet
  facet normal -0.15643446504023234 -0.9876883405951374 0
    outer loop
      vertex -0.5621439437571745 -2.9468617521860656 -1
      vertex -0.3759997006929122 -2.9763441039434335 1
      vertex -0.5621439437571745 -2.9468617521860656 1
    endloop
  endfacet
  facet normal -0.15643446504023234 -0.9876883405951374 0
    outer loop
      vertex -0.3759997006929122 -2.9763441039434335 1
      vertex -0.5621439437571745 -2.9468617521860656 -1
      vertex -0.3759997006929122 -2.9763441039434335 -1
    endloop
  endfacet
  facet normal -0.09410831331851383 -0.9955619646030801 0
    outer loop
      vertex -0.3759997006929122 -2.9763441039434335 -1
      vertex -0.1883715585879413 -2.9940801852848145 1
      vertex -0.3759997006929122 -2.9763441039434335 1
    endloop
  endfacet
  facet normal -0.09410831331851383 -0.9955619646030801 0
    outer loop
      vertex -0.1883715585879413 -2.9940801852848145 1
      vertex -0.3759997006929122 -2.9763441039434335 -1
      vertex -0.1883715585879413 -2.9940801852848145 -1
    endloop
  endfacet
  facet normal -0.031410759078129326 -0.9995065603657315 0
    outer loop
      vertex -0.1883715585879413 -2.9940801852848145 -1
      vertex 0 -3 1
      vertex -0.1883715585879413 -2.9940801852848145 1
    endloop
  endfacet
  facet normal -0.031410759078129326 -0.9995065603657315 0
    outer loop
      vertex 0 -3 1
      vertex -0.1883715585879413 -2.9940801852848145 -1
      vertex 0 -3 -1
    endloop
  endfacet
  facet normal 0.031410759078129326 -0.9995065603657315 0
    outer loop
      vertex 0 -3 -1
      vertex 0.1883715585879413 -2.9940801852848145 1
      vertex 0 -3 1
    endloop
  endfacet
  facet normal 0.031410759078129326 -0.9995065603657315 0
    outer loop
      vertex 0.1883715585879413 -2.9940801852848145 1
      vertex 0 -3 -1
      vertex 0.1883715585879413 -2.9940801852848145 -1
    endloop
  endfacet
  facet normal 0.09410831331851383 -0.9955619646030801 0
    outer loop
      vertex 0.1883715585879413 -2.9940801852848145 -1
      vertex 0.3759997006929122 -2.9763441039434335 1
      vertex 0.1883715585879413 -2.9940801852848145 1
    endloop
  endfacet
  facet normal 0.09410831331851383 -0.9955619646030801 0
    outer loop
      vertex 0.3759997006929122 -2.9763441039434335 1
      vertex 0.1883715585879413 -2.9940801852848145 -1
      vertex 0.3759997006929122 -2.9763441039434335 -1
    endloop
  endfacet
  facet normal 0.15643446504023234 -0.9876883405951374 0
    outer loop
      vertex 0.3759997006929122 -2.9763441039434335 -1
      vertex 0.5621439437571745 -2.9468617521860656 1
      vertex 0.3759997006929122 -2.9763441039434335 1
    endloop
  endfacet
  facet normal 0.15643446504023234 -0.9876883405951374 0
    outer loop
      vertex 0.5621439437571745 -2.9468617521860656 1
      vertex 0.3759997006929122 -2.9763441039434335 -1
      vertex 0.5621439437571745 -2.9468617521860656 -1
    endloop
  endfacet
  facet normal 0.2181432413965406 -0.9759167619387478 0
    outer loop
      vertex 0.5621439437571745 -2.9468617521860656 -1
      vertex 0.7460696614945633 -2.9057494833858937 1
      vertex 0.5621439437571745 -2.9468617521860656 1
    endloop
  endfacet
  facet normal 0.2181432413965406 -0.9759167619387478 0
    outer loop
      vertex 0.7460696614945633 -2.9057494833858937 1
      vertex 0.5621439437571745 -2.9468617521860656 -1
      vertex 0.7460696614945633 -2.9057494833858937 -1
    endloop
  endfacet
  facet normal 0.27899110603923066 -0.9602936856769426 0
    outer loop
      vertex 0.7460696614945633 -2.9057494833858937 -1
      vertex 0.9270509831248421 -2.8531695488854605 1
      vertex 0.7460696614945633 -2.9057494833858937 1
    endloop
  endfacet
  facet normal 0.27899110603923066 -0.9602936856769426 0
    outer loop
      vertex 0.9270509831248421 -2.8531695488854605 1
      vertex 0.7460696614945633 -2.9057494833858937 -1
      vertex 0.9270509831248421 -2.8531695488854605 -1
    endloop
  endfacet
  facet normal 0.33873792024529087 -0.9408807689542257 0
    outer loop
      vertex 0.9270509831248421 -2.8531695488854605 -1
      vertex 1.104373658054035 -2.7893294576647536 1
      vertex 0.9270509831248421 -2.8531695488854605 1
    endloop
  endfacet
  facet normal 0.33873792024529087 -0.9408807689542257 0
    outer loop
      vertex 1.104373658054035 -2.7893294576647536 1
      vertex 0.9270509831248421 -2.8531695488854605 -1
      vertex 1.104373658054035 -2.7893294576647536 -1
    endloop
  endfacet
  facet normal 0.39714789063478073 -0.917754625683981 0
    outer loop
      vertex 1.104373658054035 -2.7893294576647536 -1
      vertex 1.2773378746952173 -2.7144811573980587 1
      vertex 1.104373658054035 -2.7893294576647536 1
    endloop
  endfacet
  facet normal 0.39714789063478073 -0.917754625683981 0
    outer loop
      vertex 1.2773378746952173 -2.7144811573980587 1
      vertex 1.104373658054035 -2.7893294576647536 -1
      vertex 1.2773378746952173 -2.7144811573980587 -1
    endloop
  endfacet
  facet normal 0.45399049973954697 -0.8910065241883678 0
    outer loop
      vertex 1.2773378746952173 -2.7144811573980587 -1
      vertex 1.445261022305146 -2.6289200401315904 1
      vertex 1.2773378746952173 -2.7144811573980587 1
    endloop
  endfacet
  facet normal 0.45399049973954697 -0.8910065241883678 0
    outer loop
      vertex 1.445261022305146 -2.6289200401315904 1
      vertex 1.2773378746952173 -2.7144811573980587 -1
      vertex 1.445261022305146 -2.6289200401315904 -1
    endloop
  endfacet
  facet normal 0.5090414157503705 -0.8607420270039441 0
    outer loop
      vertex 1.445261022305146 -2.6289200401315904 -1
      vertex 1.6074803849369887 -2.532983776506046 1
      vertex 1.445261022305146 -2.6289200401315904 1
    endloop
  endfacet
  facet normal 0.5090414157503705 -0.8607420270039441 0
    outer loop
      vertex 1.6074803849369887 -2.532983776506046 1
      vertex 1.445261022305146 -2.6289200401315904 -1
      vertex 1.6074803849369887 -2.532983776506046 -1
    endloop
  endfacet
  facet normal 0.5620833778521299 -0.8270805742745624 0
    outer loop
      vertex 1.6074803849369887 -2.532983776506046 -1
      vertex 1.7633557568774194 -2.4270509831248424 1
      vertex 1.6074803849369887 -2.532983776506046 1
    endloop
  endfacet
  facet normal 0.5620833778521299 -0.8270805742745624 0
    outer loop
      vertex 1.7633557568774194 -2.4270509831248424 1
      vertex 1.6074803849369887 -2.532983776506046 -1
      vertex 1.7633557568774194 -2.4270509831248424 -1
    endloop
  endfacet
  facet normal 0.6129070536529768 -0.7901550123756901 0
    outer loop
      vertex 1.7633557568774194 -2.4270509831248424 -1
      vertex 1.91227196924607 -2.311539728327367 1
      vertex 1.7633557568774194 -2.4270509831248424 1
    endloop
  endfacet
  facet normal 0.6129070536529768 -0.7901550123756901 0
    outer loop
      vertex 1.91227196924607 -2.311539728327367 1
      vertex 1.7633557568774194 -2.4270509831248424 -1
      vertex 1.91227196924607 -2.311539728327367 -1
    endloop
  endfacet
  facet normal 0.6613118653236519 -0.7501110696304595 0
    outer loop
      vertex 1.91227196924607 -2.311539728327367 -1
      vertex 2.0536413177860657 -2.186905882264235 1
      vertex 1.91227196924607 -2.311539728327367 1
    endloop
  endfacet
  facet normal 0.6613118653236519 -0.7501110696304595 0
    outer loop
      vertex 2.0536413177860657 -2.186905882264235 1
      vertex 1.91227196924607 -2.311539728327367 -1
      vertex 2.0536413177860657 -2.186905882264235 -1
    endloop
  endfacet
  facet normal 0.7071067811865475 -0.7071067811865475 0
    outer loop
      vertex 2.0536413177860657 -2.186905882264235 1
      vertex 2.186905882264235 -2.0536413177860657 -1
      vertex 2.186905882264235 -2.0536413177860657 1
    endloop
  endfacet
  facet normal 0.7071067811865475 -0.7071067811865475 0
    outer loop
      vertex 2.186905882264235 -2.0536413177860657 -1
      vertex 2.0536413177860657 -2.186905882264235 1
      vertex 2.0536413177860657 -2.186905882264235 -1
    endloop
  endfacet
  facet normal 0.7501110696304595 -0.6613118653236519 0
    outer loop
      vertex 2.186905882264235 -2.0536413177860657 1
      vertex 2.311539728327367 -1.91227196924607 -1
      vertex 2.311539728327367 -1.91227196924607 1
    endloop
  endfacet
  facet normal 0.7501110696304595 -0.6613118653236519 0
    outer loop
      vertex 2.311539728327367 -1.91227196924607 -1
      vertex 2.186905882264235 -2.0536413177860657 1
      vertex 2.186905882264235 -2.0536413177860657 -1
    endloop
  endfacet
  facet normal 0.7901550123756901 -0.6129070536529768 0
    outer loop
      vertex 2.311539728327367 -1.91227196924607 1
      vertex 2.4270509831248424 -1.7633557568774194 -1
      vertex 2.4270509831248424 -1.7633557568774194 1
    endloop
  endfacet
  facet normal 0.7901550123756901 -0.6129070536529768 0
    outer loop
      vertex 2.4270509831248424 -1.7633557568774194 -1
      vertex 2.311539728327367 -1.91227196924607 1
      vertex 2.311539728327367 -1.91227196924607 -1
    endloop
  endfacet
  facet normal 0.8270805742745624 -0.5620833778521299 0
    outer loop
      vertex 2.4270509831248424 -1.7633557568774194 1
      vertex 2.532983776506046 -1.6074803849369887 -1
      vertex 2.532983776506046 -1.6074803849369887 1
    endloop
  endfacet
  facet normal 0.8270805742745624 -0.5620833778521299 0
    outer loop
      vertex 2.532983776506046 -1.6074803849369887 -1
      vertex 2.4270509831248424 -1.7633557568774194 1
      vertex 2.4270509831248424 -1.7633557568774194 -1
    endloop
  endfacet
  facet normal 0.8607420270039441 -0.5090414157503705 0
    outer loop
      vertex 2.532983776506046 -1.6074803849369887 1
      vertex 2.6289200401315904 -1.445261022305146 -1
      vertex 2.6289200401315904 -1.445261022305146 1
    endloop
  endfacet
  facet normal 0.8607420270039441 -0.5090414157503705 0
    outer loop
      vertex 2.6289200401315904 -1.445261022305146 -1
      vertex 2.532983776506046 -1.6074803849369887 1
      vertex 2.532983776506046 -1.6074803849369887 -1
    endloop
  endfacet
  facet normal 0.8910065241883678 -0.45399049973954697 0
    outer loop
      vertex 2.6289200401315904 -1.445261022305146 1
      vertex 2.7144811573980587 -1.2773378746952173 -1
      vertex 2.7144811573980587 -1.2773378746952173 1
    endloop
  endfacet
  facet normal 0.8910065241883678 -0.45399049973954697 0
    outer loop
      vertex 2.7144811573980587 -1.2773378746952173 -1
      vertex 2.6289200401315904 -1.445261022305146 1
      vertex 2.6289200401315904 -1.445261022305146 -1
    endloop
  endfacet
  facet normal 0.917754625683981 -0.39714789063478073 0
    outer loop
      vertex 2.7144811573980587 -1.2773378746952173 1
      vertex 2.7893294576647536 -1.104373658054035 -1
      vertex 2.7893294576647536 -1.104373658054035 1
    endloop
  endfacet
  facet normal 0.917754625683981 -0.39714789063478073 0
    outer loop
      vertex 2.7893294576647536 -1.104373658054035 -1
      vertex 2.7144811573980587 -1.2773378746952173 1
      vertex 2.7144811573980587 -1.2773378746952173 -1
    endloop
  endfacet
  facet normal 0.9408807689542257 -0.33873792024529087 0
    outer loop
      vertex 2.7893294576647536 -1.104373658054035 1
      vertex 2.8531695488854605 -0.9270509831248421 -1
      vertex 2.8531695488854605 -0.9270509831248421 1
    endloop
  endfacet
  facet normal 0.9408807689542257 -0.33873792024529087 0
    outer loop
      vertex 2.8531695488854605 -0.9270509831248421 -1
      vertex 2.7893294576647536 -1.104373658054035 1
      vertex 2.7893294576647536 -1.104373658054035 -1
    endloop
  endfacet
  facet normal 0.9602936856769426 -0.27899110603923066 0
    outer loop
      vertex 2.8531695488854605 -0.9270509831248421 1
      vertex 2.9057494833858937 -0.7460696614945633 -1
      vertex 2.9057494833858937 -0.7460696614945633 1
    endloop
  endfacet
  facet normal 0.9602936856769426 -0.27899110603923066 0
    outer loop
      vertex 2.9057494833858937 -0.7460696614945633 -1
      vertex 2.8531695488854605 -0.9270509831248421 1
      vertex 2.8531695488854605 -0.9270509831248421 -1
    endloop
  endfacet
  facet normal 0.9759167619387478 -0.2181432413965406 0
    outer loop
      vertex 2.9057494833858937 -0.7460696614945633 1
      vertex 2.9468617521860656 -0.5621439437571745 -1
      vertex 2.9468617521860656 -0.5621439437571745 1
    endloop
  endfacet
  facet normal 0.9759167619387478 -0.2181432413965406 0
    outer loop
      vertex 2.9468617521860656 -0.5621439437571745 -1
      vertex 2.9057494833858937 -0.7460696614945633 1
      vertex 2.9057494833858937 -0.7460696614945633 -1
    endloop
  endfacet
  facet normal 0.9876883405951374 -0.15643446504023234 0
    outer loop
      vertex 2.9468617521860656 -0.5621439437571745 1
      vertex 2.9763441039434335 -0.3759997006929122 -1
      vertex 2.9763441039434335 -0.3759997006929122 1
    endloop
  endfacet
  facet normal 0.9876883405951374 -0.15643446504023234 0
    outer loop
      vertex 2.9763441039434335 -0.3759997006929122 -1
      vertex 2.9468617521860656 -0.5621439437571745 1
      vertex 2.9468617521860656 -0.5621439437571745 -1
    endloop
  endfacet
  facet normal 0.9955619646030801 -0.09410831331851383 0
    outer loop
      vertex 2.9763441039434335 -0.3759997006929122 1
      vertex 2.9940801852848145 -0.1883715585879413 -1
      vertex 2.9940801852848145 -0.1883715585879413 1
    endloop
  endfacet
  facet normal 0.9955619646030801 -0.09410831331851383 0
    outer loop
      vertex 2.9940801852848145 -0.1883715585879413 -1
      vertex 2.9763441039434335 -0.3759997006929122 1
      vertex 2.9763441039434335 -0.3759997006929122 -1
    endloop
  endfacet
  facet normal 0.9995065603657315 -0.031410759078129326 0
    outer loop
      vertex 2.9940801852848145 -0.1883715585879413 1
      vertex 3 0 -1
      vertex 3 0 1
    endloop
  endfacet
  facet normal 0.9995065603657315 -0.031410759078129326 0
    outer loop
      vertex 3 0 -1
      vertex 2.9940801852848145 -0.1883715585879413 1
      vertex 2.9940801852848145 -0.1883715585879413 -1
    endloop
  endfacet
  facet normal 0 0 -1
    outer loop
      vertex 2.9940801852848145 -0.1883715585879413 -1
      vertex 2.9940801852848145 0.18837155858794014 -1
      vertex 3 0 -1
    endloop
  endfacet
  facet normal 0 0 -1
    outer loop
      vertex 2.9763441039434335 -0.3759997006929122 -1
      vertex 2.9940801852848145 0.18837155858794014 -1
      vertex 2.9940801852848145 -0.1883715585879413 -1
    endloop
  endfacet
  facet normal 0 0 -1
    outer loop
      vertex 2.9763441039434335 -0.3759997006929122 -1
      vertex 2.9763441039434335 0.3759997006929128 -1
      vertex 2.9940801852848145 0.18837155858794014 -1
    endloop
  endfacet
  facet normal 0 0 -1
    outer loop
      vertex 2.9468617521860656 -0.5621439437571745 -1
      vertex 2.9763441039434335 0.3759997006929128 -1
      vertex 2.9763441039434335 -0.3759997006929122 -1
    endloop
  endfacet
  facet normal 0 0 -1
    outer loop
      vertex 2.9468617521860656 -0.5621439437571745 -1
      vertex 2.946861752186066 0.5621439437571739 -1
      vertex 2.9763441039434335 0.3759997006929128 -1
    endloop
  endfacet
  facet normal 0 0 -1
    outer loop
      vertex 2.9057494833858937 -0.7460696614945633 -1
      vertex 2.946861752186066 0.5621439437571739 -1
      vertex 2.9468617521860656 -0.5621439437571745 -1
    endloop
  endfacet
  facet normal 0 0 -1
    outer loop
      vertex 2.9057494833858937 -0.7460696614945633 -1
      vertex 2.9057494833858932 0.7460696614945643 -1
      vertex 2.946861752186066 0.5621439437571739 -1
    endloop
  endfacet
  facet normal 0 0 -1
    outer loop
      vertex 2.8531695488854605 -0.9270509831248421 -1
      vertex 2.9057494833858932 0.7460696614945643 -1
      vertex 2.9057494833858937 -0.7460696614945633 -1
    endloop
  endfacet
  facet normal 0 0 -1
    outer loop
      vertex 2.8531695488854605 -0.9270509831248421 -1
      vertex 2.8531695488854605 0.9270509831248421 -1
      vertex 2.9057494833858932 0.7460696614945643 -1
    endloop
  endfacet
  facet normal 0 0 -1
    outer loop
      vertex 2.7893294576647536 -1.104373658054035 -1
      vertex 2.8531695488854605 0.9270509831248421 -1
      vertex 2.8531695488854605 -0.9270509831248421 -1
    endloop
  endfacet
  facet normal 0 0 -1
    outer loop
      vertex 2.7893294576647536 -1.104373658054035 -1
      vertex 2.789329457664754 1.104373658054034 -1
      vertex 2.8531695488854605 0.9270509831248421 -1
    endloop
  endfacet
  facet normal 0 0 -1
    outer loop
      vertex 2.7144811573980587 -1.2773378746952173 -1
      vertex 2.789329457664754 1.104373658054034 -1
      vertex 2.7893294576647536 -1.104373658054035 -1
    endloop
  endfacet
  facet normal 0 0 -1
    outer loop
      vertex 2.7144811573980587 -1.2773378746952173 -1
      vertex 2.7144811573980587 1.277337874695218 -1
      vertex 2.789329457664754 1.104373658054034 -1
    endloop
  endfacet
  facet normal 0 0 -1
    outer loop
      vertex 2.6289200401315904 -1.445261022305146 -1
      vertex 2.7144811573980587 1.277337874695218 -1
      vertex 2.7144811573980587 -1.2773378746952173 -1
    endloop
  endfacet
  facet normal 0 0 -1
    outer loop
      vertex 2.6289200401315904 -1.445261022305146 -1
      vertex 2.628920040131591 1.445261022305146 -1
      vertex 2.7144811573980587 1.277337874695218 -1
    endloop
  endfacet
  facet normal 0 0 -1
    outer loop
      vertex 2.532983776506046 -1.6074803849369887 -1
      vertex 2.628920040131591 1.445261022305146 -1
      vertex 2.6289200401315904 -1.445261022305146 -1
    endloop
  endfacet
  facet normal 0 0 -1
    outer loop
      vertex 2.532983776506046 -1.6074803849369887 -1
      vertex 2.532983776506045 1.60748038493699 -1
      vertex 2.628920040131591 1.445261022305146 -1
    endloop
  endfacet
  facet normal 0 0 -1
    outer loop
      vertex 2.4270509831248424 -1.7633557568774194 -1
      vertex 2.532983776506045 1.60748038493699 -1
      vertex 2.532983776506046 -1.6074803849369887 -1
    endloop
  endfacet
  facet normal 0 0 -1
    outer loop
      vertex 2.4270509831248424 -1.7633557568774194 -1
      vertex 2.4270509831248424 1.7633557568774194 -1
      vertex 2.532983776506045 1.60748038493699 -1
    endloop
  endfacet
  facet normal 0 0 -1
    outer loop
      vertex 2.311539728327367 -1.91227196924607 -1
      vertex 2.4270509831248424 1.7633557568774194 -1
      vertex 2.4270509831248424 -1.7633557568774194 -1
    endloop
  endfacet
  facet normal 0 0 -1
    outer loop
      vertex 2.311539728327367 -1.91227196924607 -1
      vertex 2.3115397283273675 1.9122719692460692 -1
      vertex 2.4270509831248424 1.7633557568774194 -1
    endloop
  endfacet
  facet normal 0 0 -1
    outer loop
      vertex 2.186905882264235 -2.0536413177860657 -1
      vertex 2.3115397283273675 1.9122719692460692 -1
      vertex 2.311539728327367 -1.91227196924607 -1
    endloop
  endfacet
  facet normal 0 0 -1
    outer loop
      vertex 2.186905882264235 -2.0536413177860657 -1
      vertex 2.1869058822642344 2.053641317786066 -1
      vertex 2.3115397283273675 1.9122719692460692 -1
    endloop
  endfacet
  facet normal 0 0 -1
    outer loop
      vertex 2.0536413177860657 -2.186905882264235 -1
      vertex 2.1869058822642344 2.053641317786066 -1
      vertex 2.186905882264235 -2.0536413177860657 -1
    endloop
  endfacet
  facet normal 0 0 -1
    outer loop
      vertex 2.0536413177860657 -2.186905882264235 -1
      vertex 2.053641317786066 2.1869058822642344 -1
      vertex 2.1869058822642344 2.053641317786066 -1
    endloop
  endfacet
  facet normal 0 0 -1
    outer loop
      vertex 1.91227196924607 -2.311539728327367 -1
      vertex 2.053641317786066 2.1869058822642344 -1
      vertex 2.0536413177860657 -2.186905882264235 -1
    endloop
  endfacet
  facet normal 0 0 -1
    outer loop
      vertex 1.91227196924607 -2.311539728327367 -1
      vertex 1.9122719692460692 2.3115397283273675 -1
      vertex 2.053641317786066 2.1869058822642344 -1
    endloop
  endfacet
  facet normal 0 0 -1
    outer loop
      vertex 1.7633557568774194 -2.4270509831248424 -1
      vertex 1.9122719692460692 2.3115397283273675 -1
      vertex 1.91227196924607 -2.311539728327367 -1
    endloop
  endfacet
  facet normal 0 0 -1
    outer loop
      vertex 1.7633557568774194 -2.4270509831248424 -1
      vertex 1.7633557568774194 2.4270509831248424 -1
      vertex 1.9122719692460692 2.3115397283273675 -1
    endloop
  endfacet
  facet normal 0 0 -1
    outer loop
      vertex 1.6074803849369887 -2.532983776506046 -1
      vertex 1.7633557568774194 2.4270509831248424 -1
      vertex 1.7633557568774194 -2.4270509831248424 -1
    endloop
  endfacet
  facet normal 0 0 -1
    outer loop
      vertex 1.6074803849369887 -2.532983776506046 -1
      vertex 1.60748038493699 2.532983776506045 -1
      vertex 1.7633557568774194 2.4270509831248424 -1
    endloop
  endfacet
  facet normal 0 0 -1
    outer loop
      vertex 1.445261022305146 -2.6289200401315904 -1
      vertex 1.60748038493699 2.532983776506045 -1
      vertex 1.6074803849369887 -2.532983776506046 -1
    endloop
  endfacet
  facet normal 0 0 -1
    outer loop
      vertex 1.445261022305146 -2.6289200401315904 -1
      vertex 1.4452610223051456 2.628920040131591 -1
      vertex 1.60748038493699 2.532983776506045 -1
    endloop
  endfacet
  facet normal 0 0 -1
    outer loop
      vertex 1.2773378746952173 -2.7144811573980587 -1
      vertex 1.4452610223051456 2.628920040131591 -1
      vertex 1.445261022305146 -2.6289200401315904 -1
    endloop
  endfacet
  facet normal 0 0 -1
    outer loop
      vertex 1.2773378746952173 -2.7144811573980587 -1
      vertex 1.2773378746952182 2.7144811573980583 -1
      vertex 1.4452610223051456 2.628920040131591 -1
    endloop
  endfacet
  facet normal 0 0 -1
    outer loop
      vertex 1.104373658054035 -2.7893294576647536 -1
      vertex 1.2773378746952182 2.7144811573980583 -1
      vertex 1.2773378746952173 -2.7144811573980587 -1
    endloop
  endfacet
  facet normal 0 0 -1
    outer loop
      vertex 1.104373658054035 -2.7893294576647536 -1
      vertex 1.1043736580540335 2.7893294576647545 -1
      vertex 1.2773378746952182 2.7144811573980583 -1
    endloop
  endfacet
  facet normal 0 0 -1
    outer loop
      vertex 0.9270509831248421 -2.8531695488854605 -1
      vertex 1.1043736580540335 2.7893294576647545 -1
      vertex 1.104373658054035 -2.7893294576647536 -1
    endloop
  endfacet
  facet normal 0 0 -1
    outer loop
      vertex 0.9270509831248421 -2.8531695488854605 -1
      vertex 0.9270509831248421 2.8531695488854605 -1
      vertex 1.1043736580540335 2.7893294576647545 -1
    endloop
  endfacet
  facet normal 0 0 -1
    outer loop
      vertex 0.7460696614945633 -2.9057494833858937 -1
      vertex 0.9270509831248421 2.8531695488854605 -1
      vertex 0.9270509831248421 -2.8531695488854605 -1
    endloop
  endfacet
  facet normal 0 0 -1
    outer loop
      vertex 0.7460696614945633 -2.9057494833858937 -1
      vertex 0.7460696614945646 2.9057494833858932 -1
      vertex 0.9270509831248421 2.8531695488854605 -1
    endloop
  endfacet
  facet normal 0 0 -1
    outer loop
      vertex 0.5621439437571745 -2.9468617521860656 -1
      vertex 0.7460696614945646 2.9057494833858932 -1
      vertex 0.7460696614945633 -2.9057494833858937 -1
    endloop
  endfacet
  facet normal 0 0 -1
    outer loop
      vertex 0.5621439437571745 -2.9468617521860656 -1
      vertex 0.5621439437571737 2.946861752186066 -1
      vertex 0.7460696614945646 2.9057494833858932 -1
    endloop
  endfacet
  facet normal 0 0 -1
    outer loop
      vertex 0.3759997006929122 -2.9763441039434335 -1
      vertex 0.5621439437571737 2.946861752186066 -1
      vertex 0.5621439437571745 -2.9468617521860656 -1
    endloop
  endfacet
  facet normal 0 0 -1
    outer loop
      vertex 0.3759997006929122 -2.9763441039434335 -1
      vertex 0.3759997006929129 2.9763441039434335 -1
      vertex 0.5621439437571737 2.946861752186066 -1
    endloop
  endfacet
  facet normal 0 0 -1
    outer loop
      vertex 0.1883715585879413 -2.9940801852848145 -1
      vertex 0.3759997006929129 2.9763441039434335 -1
      vertex 0.3759997006929122 -2.9763441039434335 -1
    endloop
  endfacet
  facet normal 0 0 -1
    outer loop
      vertex 0.1883715585879413 -2.9940801852848145 -1
      vertex 0.18837155858793983 2.9940801852848145 -1
      vertex 0.3759997006929129 2.9763441039434335 -1
    endloop
  endfacet
  facet normal 0 0 -1
    outer loop
      vertex 0 -3 -1
      vertex 0.18837155858793983 2.9940801852848145 -1
      vertex 0.1883715585879413 -2.9940801852848145 -1
    endloop
  endfacet
  facet normal 0 0 -1
    outer loop
      vertex 0 -3 -1
      vertex 0 3 -1
      vertex 0.18837155858793983 2.9940801852848145 -1
    endloop
  endfacet
  facet normal 0 0 -1
    outer loop
      vertex -0.1883715585879413 -2.9940801852848145 -1
      vertex 0 3 -1
      vertex 0 -3 -1
    endloop
  endfacet
  facet normal 0 0 -1
    outer loop
      vertex -0.1883715585879413 -2.9940801852848145 -1
      vertex -0.18837155858793983 2.9940801852848145 -1
      vertex 0 3 -1
    endloop
  endfacet
  facet normal 0 0 -1
    outer loop
      vertex -0.3759997006929122 -2.9763441039434335 -1
      vertex -0.18837155858793983 2.9940801852848145 -1
      vertex -0.1883715585879413 -2.9940801852848145 -1
    endloop
  endfacet
  facet normal 0 0 -1
    outer loop
      vertex -0.3759997006929122 -2.9763441039434335 -1
      vertex -0.3759997006929129 2.9763441039434335 -1
      vertex -0.18837155858793983 2.9940801852848145 -1
    endloop
  endfacet
  facet normal 0 0 -1
    outer loop
      vertex -0.5621439437571745 -2.9468617521860656 -1
      vertex -0.3759997006929129 2.9763441039434335 -1
      vertex -0.3759997006929122 -2.9763441039434335 -1
    endloop
  endfacet
  facet normal 0 0 -1
    outer loop
      vertex -0.5621439437571745 -2.9468617521860656 -1
      vertex -0.5621439437571737 2.946861752186066 -1
      vertex -0.3759997006929129 2.9763441039434335 -1
    endloop
  endfacet
  facet normal 0 0 -1
    outer loop
      vertex -0.7460696614945646 -2.9057494833858932 -1
      vertex -0.5621439437571737 2.946861752186066 -1
      vertex -0.5621439437571745 -2.9468617521860656 -1
    endloop
  endfacet
  facet normal 0 0 -1
    outer loop
      vertex -0.7460696614945646 -2.9057494833858932 -1
      vertex -0.7460696614945646 2.9057494833858932 -1
      vertex -0.5621439437571737 2.946861752186066 -1
    endloop
  endfacet
  facet normal 0 0 -1
    outer loop
      vertex -0.9270509831248421 -2.8531695488854605 -1
      vertex -0.7460696614945646 2.9057494833858932 -1
      vertex -0.7460696614945646 -2.9057494833858932 -1
    endloop
  endfacet
  facet normal 0 0 -1
    outer loop
      vertex -0.9270509831248421 -2.8531695488854605 -1
      vertex -0.9270509831248421 2.8531695488854605 -1
      vertex -0.7460696614945646 2.9057494833858932 -1
    endloop
  endfacet
  facet normal 0 0 -1
    outer loop
      vertex -1.1043736580540335 -2.7893294576647545 -1
      vertex -0.9270509831248421 2.8531695488854605 -1
      vertex -0.9270509831248421 -2.8531695488854605 -1
    endloop
  endfacet
  facet normal 0 0 -1
    outer loop
      vertex -1.1043736580540335 -2.7893294576647545 -1
      vertex -1.1043736580540335 2.7893294576647545 -1
      vertex -0.9270509831248421 2.8531695488854605 -1
    endloop
  endfacet
  facet normal 0 0 -1
    outer loop
      vertex -1.2773378746952173 -2.7144811573980587 -1
      vertex -1.1043736580540335 2.7893294576647545 -1
      vertex -1.1043736580540335 -2.7893294576647545 -1
    endloop
  endfacet
  facet normal 0 0 -1
    outer loop
      vertex -1.2773378746952173 -2.7144811573980587 -1
      vertex -1.2773378746952182 2.7144811573980583 -1
      vertex -1.1043736580540335 2.7893294576647545 -1
    endloop
  endfacet
  facet normal 0 0 -1
    outer loop
      vertex -1.445261022305146 -2.6289200401315904 -1
      vertex -1.2773378746952182 2.7144811573980583 -1
      vertex -1.2773378746952173 -2.7144811573980587 -1
    endloop
  endfacet
  facet normal 0 0 -1
    outer loop
      vertex -1.445261022305146 -2.6289200401315904 -1
      vertex -1.4452610223051456 2.628920040131591 -1
      vertex -1.2773378746952182 2.7144811573980583 -1
    endloop
  endfacet
  facet normal 0 0 -1
    outer loop
      vertex -1.6074803849369903 -2.532983776506045 -1
      vertex -1.4452610223051456 2.628920040131591 -1
      vertex -1.445261022305146 -2.6289200401315904 -1
    endloop
  endfacet
  facet normal 0 0 -1
    outer loop
      vertex -1.6074803849369903 -2.532983776506045 -1
      vertex -1.6074803849369903 2.532983776506045 -1
      vertex -1.4452610223051456 2.628920040131591 -1
    endloop
  endfacet
  facet normal 0 0 -1
    outer loop
      vertex -1.7633557568774194 -2.4270509831248424 -1
      vertex -1.6074803849369903 2.532983776506045 -1
      vertex -1.6074803849369903 -2.532983776506045 -1
    endloop
  endfacet
  facet normal 0 0 -1
    outer loop
      vertex -1.7633557568774194 -2.4270509831248424 -1
      vertex -1.7633557568774194 2.4270509831248424 -1
      vertex -1.6074803849369903 2.532983776506045 -1
    endloop
  endfacet
  facet normal 0 0 -1
    outer loop
      vertex -1.9122719692460688 -2.311539728327368 -1
      vertex -1.7633557568774194 2.4270509831248424 -1
      vertex -1.7633557568774194 -2.4270509831248424 -1
    endloop
  endfacet
  facet normal 0 0 -1
    outer loop
      vertex -1.9122719692460688 -2.311539728327368 -1
      vertex -1.9122719692460688 2.311539728327368 -1
      vertex -1.7633557568774194 2.4270509831248424 -1
    endloop
  endfacet
  facet normal 0 0 -1
    outer loop
      vertex -2.0536413177860657 -2.186905882264235 -1
      vertex -1.9122719692460688 2.311539728327368 -1
      vertex -1.9122719692460688 -2.311539728327368 -1
    endloop
  endfacet
  facet normal 0 0 -1
    outer loop
      vertex -2.0536413177860657 -2.186905882264235 -1
      vertex -2.0536413177860657 2.186905882264235 -1
      vertex -1.9122719692460688 2.311539728327368 -1
    endloop
  endfacet
  facet normal 0 0 -1
    outer loop
      vertex -2.186905882264235 -2.0536413177860657 -1
      vertex -2.0536413177860657 2.186905882264235 -1
      vertex -2.0536413177860657 -2.186905882264235 -1
    endloop
  endfacet
  facet normal 0 0 -1
    outer loop
      vertex -2.186905882264235 -2.0536413177860657 -1
      vertex -2.186905882264235 2.0536413177860657 -1
      vertex -2.0536413177860657 2.186905882264235 -1
    endloop
  endfacet
  facet normal 0 0 -1
    outer loop
      vertex -2.311539728327368 -1.9122719692460688 -1
      vertex -2.186905882264235 2.0536413177860657 -1
      vertex -2.186905882264235 -2.0536413177860657 -1
    endloop
  endfacet
  facet normal 0 0 -1
    outer loop
      vertex -2.311539728327368 -1.9122719692460688 -1
      vertex -2.311539728327368 1.9122719692460688 -1
      vertex -2.186905882264235 2.0536413177860657 -1
    endloop
  endfacet
  facet normal 0 0 -1
    outer loop
      vertex -2.4270509831248424 -1.7633557568774194 -1
      vertex -2.311539728327368 1.9122719692460688 -1
      vertex -2.311539728327368 -1.9122719692460688 -1
    endloop
  endfacet
  facet normal 0 0 -1
    outer loop
      vertex -2.4270509831248424 -1.7633557568774194 -1
      vertex -2.4270509831248424 1.7633557568774194 -1
      vertex -2.311539728327368 1.9122719692460688 -1
    endloop
  endfacet
  facet normal 0 0 -1
    outer loop
      vertex -2.532983776506045 -1.6074803849369903 -1
      vertex -2.4270509831248424 1.7633557568774194 -1
      vertex -2.4270509831248424 -1.7633557568774194 -1
    endloop
  endfacet
  facet normal 0 0 -1
    outer loop
      vertex -2.532983776506045 -1.6074803849369903 -1
      vertex -2.532983776506045 1.6074803849369903 -1
      vertex -2.4270509831248424 1.7633557568774194 -1
    endloop
  endfacet
  facet normal 0 0 -1
    outer loop
      vertex -2.6289200401315904 -1.445261022305146 -1
      vertex -2.532983776506045 1.6074803849369903 -1
      vertex -2.532983776506045 -1.6074803849369903 -1
    endloop
  endfacet
  facet normal 0 0 -1
    outer loop
      vertex -2.6289200401315904 -1.445261022305146 -1
      vertex -2.6289200401315904 1.445261022305146 -1
      vertex -2.532983776506045 1.6074803849369903 -1
    endloop
  endfacet
  facet normal 0 0 -1
    outer loop
      vertex -2.7144811573980587 -1.2773378746952173 -1
      vertex -2.6289200401315904 1.445261022305146 -1
      vertex -2.6289200401315904 -1.445261022305146 -1
    endloop
  endfacet
  facet normal 0 0 -1
    outer loop
      vertex -2.7144811573980587 -1.2773378746952173 -1
      vertex -2.7144811573980587 1.2773378746952173 -1
      vertex -2.6289200401315904 1.445261022305146 -1
    endloop
  endfacet
  facet normal 0 0 -1
    outer loop
      vertex -2.7893294576647545 -1.1043736580540335 -1
      vertex -2.7144811573980587 1.2773378746952173 -1
      vertex -2.7144811573980587 -1.2773378746952173 -1
    endloop
  endfacet
  facet normal 0 0 -1
    outer loop
      vertex -2.7893294576647545 -1.1043736580540335 -1
      vertex -2.7893294576647545 1.1043736580540335 -1
      vertex -2.7144811573980587 1.2773378746952173 -1
    endloop
  endfacet
  facet normal 0 0 -1
    outer loop
      vertex -2.8531695488854605 -0.9270509831248421 -1
      vertex -2.7893294576647545 1.1043736580540335 -1
      vertex -2.7893294576647545 -1.1043736580540335 -1
    endloop
  endfacet
  facet normal 0 0 -1
    outer loop
      vertex -2.8531695488854605 -0.9270509831248421 -1
      vertex -2.8531695488854605 0.9270509831248421 -1
      vertex -2.7893294576647545 1.1043736580540335 -1
    endloop
  endfacet
  facet normal 0 0 -1
    outer loop
      vertex -2.9057494833858932 -0.7460696614945646 -1
      vertex -2.8531695488854605 0.9270509831248421 -1
      vertex -2.8531695488854605 -0.9270509831248421 -1
    endloop
  endfacet
  facet normal 0 0 -1
    outer loop
      vertex -2.9057494833858932 -0.7460696614945646 -1
      vertex -2.9057494833858932 0.7460696614945646 -1
      vertex -2.8531695488854605 0.9270509831248421 -1
    endloop
  endfacet
  facet normal 0 0 -1
    outer loop
      vertex -2.9468617521860656 -0.5621439437571745 -1
      vertex -2.9057494833858932 0.7460696614945646 -1
      vertex -2.9057494833858932 -0.7460696614945646 -1
    endloop
  endfacet
  facet normal 0 0 -1
    outer loop
      vertex -2.9468617521860656 -0.5621439437571745 -1
      vertex -2.9468617521860656 0.5621439437571745 -1
      vertex -2.9057494833858932 0.7460696614945646 -1
    endloop
  endfacet
  facet normal 0 0 -1
    outer loop
      vertex -2.9763441039434335 -0.3759997006929122 -1
      vertex -2.9468617521860656 0.5621439437571745 -1
      vertex -2.9468617521860656 -0.5621439437571745 -1
    endloop
  endfacet
  facet normal 0 0 -1
    outer loop
      vertex -2.9763441039434335 -0.3759997006929122 -1
      vertex -2.9763441039434335 0.3759997006929122 -1
      vertex -2.9468617521860656 0.5621439437571745 -1
    endloop
  endfacet
  facet normal 0 0 -1
    outer loop
      vertex -2.9940801852848145 -0.18837155858793983 -1
      vertex -2.9763441039434335 0.3759997006929122 -1
      vertex -2.9763441039434335 -0.3759997006929122 -1
    endloop
  endfacet
  facet normal 0 0 -1
    outer loop
      vertex -2.9940801852848145 -0.18837155858793983 -1
      vertex -2.9940801852848145 0.18837155858793983 -1
      vertex -2.9763441039434335 0.3759997006929122 -1
    endloop
  endfacet
  facet normal 0 0 -1
    outer loop
      vertex -2.9940801852848145 0.18837155858793983 -1
      vertex -2.9940801852848145 -0.18837155858793983 -1
      vertex -3 0 -1
    endloop
  endfacet
  facet normal 0 0 1
    outer loop
      vertex 2.9940801852848145 0.18837155858794014 1
      vertex 2.9940801852848145 -0.1883715585879413 1
      vertex 3 0 1
    endloop
  endfacet
  facet normal 0 0 1
    outer loop
      vertex 2.9763441039434335 0.3759997006929128 1
      vertex 2.9940801852848145 -0.1883715585879413 1
      vertex 2.9940801852848145 0.18837155858794014 1
    endloop
  endfacet
  facet normal 0 0 1
    outer loop
      vertex 2.9763441039434335 0.3759997006929128 1
      vertex 2.9763441039434335 -0.3759997006929122 1
      vertex 2.9940801852848145 -0.1883715585879413 1
    endloop
  endfacet
  facet normal 0 0 1
    outer loop
      vertex 2.946861752186066 0.5621439437571739 1
      vertex 2.9763441039434335 -0.3759997006929122 1
      vertex 2.9763441039434335 0.3759997006929128 1
    endloop
  endfacet
  facet normal 0 0 1
    outer loop
      vertex 2.946861752186066 0.5621439437571739 1
      vertex 2.9468617521860656 -0.5621439437571745 1
      vertex 2.9763441039434335 -0.3759997006929122 1
    endloop
  endfacet
  facet normal 0 0 1
    outer loop
      vertex 2.9057494833858932 0.7460696614945643 1
      vertex 2.9468617521860656 -0.5621439437571745 1
      vertex 2.946861752186066 0.5621439437571739 1
    endloop
  endfacet
  facet normal 0 0 1
    outer loop
      vertex 2.9057494833858932 0.7460696614945643 1
      vertex 2.9057494833858937 -0.7460696614945633 1
      vertex 2.9468617521860656 -0.5621439437571745 1
    endloop
  endfacet
  facet normal 0 0 1
    outer loop
      vertex 2.8531695488854605 0.9270509831248421 1
      vertex 2.9057494833858937 -0.7460696614945633 1
      vertex 2.9057494833858932 0.7460696614945643 1
    endloop
  endfacet
  facet normal 0 0 1
    outer loop
      vertex 2.8531695488854605 0.9270509831248421 1
      vertex 2.8531695488854605 -0.9270509831248421 1
      vertex 2.9057494833858937 -0.7460696614945633 1
    endloop
  endfacet
  facet normal 0 0 1
    outer loop
      vertex 2.789329457664754 1.104373658054034 1
      vertex 2.8531695488854605 -0.9270509831248421 1
      vertex 2.8531695488854605 0.9270509831248421 1
    endloop
  endfacet
  facet normal 0 0 1
    outer loop
      vertex 2.789329457664754 1.104373658054034 1
      vertex 2.7893294576647536 -1.104373658054035 1
      vertex 2.8531695488854605 -0.9270509831248421 1
    endloop
  endfacet
  facet normal 0 0 1
    outer loop
      vertex 2.7144811573980587 1.277337874695218 1
      vertex 2.7893294576647536 -1.104373658054035 1
      vertex 2.789329457664754 1.104373658054034 1
    endloop
  endfacet
  facet normal 0 0 1
    outer loop
      vertex 2.7144811573980587 1.277337874695218 1
      vertex 2.7144811573980587 -1.2773378746952173 1
      vertex 2.7893294576647536 -1.104373658054035 1
    endloop
  endfacet
  facet normal 0 0 1
    outer loop
      vertex 2.628920040131591 1.445261022305146 1
      vertex 2.7144811573980587 -1.2773378746952173 1
      vertex 2.7144811573980587 1.277337874695218 1
    endloop
  endfacet
  facet normal 0 0 1
    outer loop
      vertex 2.628920040131591 1.445261022305146 1
      vertex 2.6289200401315904 -1.445261022305146 1
      vertex 2.7144811573980587 -1.2773378746952173 1
    endloop
  endfacet
  facet normal 0 0 1
    outer loop
      vertex 2.532983776506045 1.60748038493699 1
      vertex 2.6289200401315904 -1.445261022305146 1
      vertex 2.628920040131591 1.445261022305146 1
    endloop
  endfacet
  facet normal 0 0 1
    outer loop
      vertex 2.532983776506045 1.60748038493699 1
      vertex 2.532983776506046 -1.6074803849369887 1
      vertex 2.6289200401315904 -1.445261022305146 1
    endloop
  endfacet
  facet normal 0 0 1
    outer loop
      vertex 2.4270509831248424 1.7633557568774194 1
      vertex 2.532983776506046 -1.6074803849369887 1
      vertex 2.532983776506045 1.60748038493699 1
    endloop
  endfacet
  facet normal 0 0 1
    outer loop
      vertex 2.4270509831248424 1.7633557568774194 1
      vertex 2.4270509831248424 -1.7633557568774194 1
      vertex 2.532983776506046 -1.6074803849369887 1
    endloop
  endfacet
  facet normal 0 0 1
    outer loop
      vertex 2.3115397283273675 1.9122719692460692 1
      vertex 2.4270509831248424 -1.7633557568774194 1
      vertex 2.4270509831248424 1.7633557568774194 1
    endloop
  endfacet
  facet normal 0 0 1
    outer loop
      vertex 2.3115397283273675 1.9122719692460692 1
      vertex 2.311539728327367 -1.91227196924607 1
      vertex 2.4270509831248424 -1.7633557568774194 1
    endloop
  endfacet
  facet normal 0 0 1
    outer loop
      vertex 2.1869058822642344 2.053641317786066 1
      vertex 2.311539728327367 -1.91227196924607 1
      vertex 2.3115397283273675 1.9122719692460692 1
    endloop
  endfacet
  facet normal 0 0 1
    outer loop
      vertex 2.1869058822642344 2.053641317786066 1
      vertex 2.186905882264235 -2.0536413177860657 1
      vertex 2.311539728327367 -1.91227196924607 1
    endloop
  endfacet
  facet normal 0 0 1
    outer loop
      vertex 2.053641317786066 2.1869058822642344 1
      vertex 2.186905882264235 -2.0536413177860657 1
      vertex 2.1869058822642344 2.053641317786066 1
    endloop
  endfacet
  facet normal 0 0 1
    outer loop
      vertex 2.053641317786066 2.1869058822642344 1
      vertex 2.0536413177860657 -2.186905882264235 1
      vertex 2.186905882264235 -2.0536413177860657 1
    endloop
  endfacet
  facet normal 0 0 1
    outer loop
      vertex 1.9122719692460692 2.3115397283273675 1
      vertex 2.0536413177860657 -2.186905882264235 1
      vertex 2.053641317786066 2.1869058822642344 1
    endloop
  endfacet
  facet normal 0 0 1
    outer loop
      vertex 1.9122719692460692 2.3115397283273675 1
      vertex 1.91227196924607 -2.311539728327367 1
      vertex 2.0536413177860657 -2.186905882264235 1
    endloop
  endfacet
  facet normal 0 0 1
    outer loop
      vertex 1.7633557568774194 2.4270509831248424 1
      vertex 1.91227196924607 -2.311539728327367 1
      vertex 1.9122719692460692 2.3115397283273675 1
    endloop
  endfacet
  facet normal 0 0 1
    outer loop
      vertex 1.7633557568774194 2.4270509831248424 1
      vertex 1.7633557568774194 -2.4270509831248424 1
      vertex 1.91227196924607 -2.311539728327367 1
    endloop
  endfacet
  facet normal 0 0 1
    outer loop
      vertex 1.60748038493699 2.532983776506045 1
      vertex 1.7633557568774194 -2.4270509831248424 1
      vertex 1.7633557568774194 2.4270509831248424 1
    endloop
  endfacet
  facet normal 0 0 1
    outer loop
      vertex 1.60748038493699 2.532983776506045 1
      vertex 1.6074803849369887 -2.532983776506046 1
      vertex 1.7633557568774194 -2.4270509831248424 1
    endloop
  endfacet
  facet normal 0 0 1
    outer loop
      vertex 1.4452610223051456 2.628920040131591 1
      vertex 1.6074803849369887 -2.532983776506046 1
      vertex 1.60748038493699 2.532983776506045 1
    endloop
  endfacet
  facet normal 0 0 1
    outer loop
      vertex 1.4452610223051456 2.628920040131591 1
      vertex 1.445261022305146 -2.6289200401315904 1
      vertex 1.6074803849369887 -2.532983776506046 1
    endloop
  endfacet
  facet normal 0 0 1
    outer loop
      vertex 1.2773378746952182 2.7144811573980583 1
      vertex 1.445261022305146 -2.6289200401315904 1
      vertex 1.4452610223051456 2.628920040131591 1
    endloop
  endfacet
  facet normal 0 0 1
    outer loop
      vertex 1.2773378746952182 2.7144811573980583 1
      vertex 1.2773378746952173 -2.7144811573980587 1
      vertex 1.445261022305146 -2.6289200401315904 1
    endloop
  endfacet
  facet normal 0 0 1
    outer loop
      vertex 1.1043736580540335 2.7893294576647545 1
      vertex 1.2773378746952173 -2.7144811573980587 1
      vertex 1.2773378746952182 2.7144811573980583 1
    endloop
  endfacet
  facet normal 0 0 1
    outer loop
      vertex 1.1043736580540335 2.7893294576647545 1
      vertex 1.104373658054035 -2.7893294576647536 1
      vertex 1.2773378746952173 -2.7144811573980587 1
    endloop
  endfacet
  facet normal 0 0 1
    outer loop
      vertex 0.9270509831248421 2.8531695488854605 1
      vertex 1.104373658054035 -2.7893294576647536 1
      vertex 1.1043736580540335 2.7893294576647545 1
    endloop
  endfacet
  facet normal 0 0 1
    outer loop
      vertex 0.9270509831248421 2.8531695488854605 1
      vertex 0.9270509831248421 -2.8531695488854605 1
      vertex 1.104373658054035 -2.7893294576647536 1
    endloop
  endfacet
  facet normal 0 0 1
    outer loop
      vertex 0.7460696614945646 2.9057494833858932 1
      vertex 0.9270509831248421 -2.8531695488854605 1
      vertex 0.9270509831248421 2.8531695488854605 1
    endloop
  endfacet
  facet normal 0 0 1
    outer loop
      vertex 0.7460696614945646 2.9057494833858932 1
      vertex 0.7460696614945633 -2.9057494833858937 1
      vertex 0.9270509831248421 -2.8531695488854605 1
    endloop
  endfacet
  facet normal 0 0 1
    outer loop
      vertex 0.5621439437571737 2.946861752186066 1
      vertex 0.7460696614945633 -2.9057494833858937 1
      vertex 0.7460696614945646 2.9057494833858932 1
    endloop
  endfacet
  facet normal 0 0 1
    outer loop
      vertex 0.5621439437571737 2.946861752186066 1
      vertex 0.5621439437571745 -2.9468617521860656 1
      vertex 0.7460696614945633 -2.9057494833858937 1
    endloop
  endfacet
  facet normal 0 0 1
    outer loop
      vertex 0.3759997006929129 2.9763441039434335 1
      vertex 0.5621439437571745 -2.9468617521860656 1
      vertex 0.5621439437571737 2.946861752186066 1
    endloop
  endfacet
  facet normal 0 0 1
    outer loop
      vertex 0.3759997006929129 2.9763441039434335 1
      vertex 0.3759997006929122 -2.9763441039434335 1
      vertex 0.5621439437571745 -2.9468617521860656 1
    endloop
  endfacet
  facet normal 0 0 1
    outer loop
      vertex 0.18837155858793983 2.9940801852848145 1
      vertex 0.3759997006929122 -2.9763441039434335 1
      vertex 0.3759997006929129 2.9763441039434335 1
    endloop
  endfacet
  facet normal 0 0 1
    outer loop
      vertex 0.18837155858793983 2.9940801852848145 1
      vertex 0.1883715585879413 -2.9940801852848145 1
      vertex 0.3759997006929122 -2.9763441039434335 1
    endloop
  endfacet
  facet normal 0 0 1
    outer loop
      vertex 0 3 1
      vertex 0.1883715585879413 -2.9940801852848145 1
      vertex 0.18837155858793983 2.9940801852848145 1
    endloop
  endfacet
  facet normal 0 0 1
    outer loop
      vertex 0 3 1
      vertex 0 -3 1
      vertex 0.1883715585879413 -2.9940801852848145 1
    endloop
  endfacet
  facet normal 0 0 1
    outer loop
      vertex -0.18837155858793983 2.9940801852848145 1
      vertex 0 -3 1
      vertex 0 3 1
    endloop
  endfacet
  facet normal 0 0 1
    outer loop
      vertex -0.18837155858793983 2.9940801852848145 1
      vertex -0.1883715585879413 -2.9940801852848145 1
      vertex 0 -3 1
    endloop
  endfacet
  facet normal 0 0 1
    outer loop
      vertex -0.3759997006929129 2.9763441039434335 1
      vertex -0.1883715585879413 -2.9940801852848145 1
      vertex -0.18837155858793983 2.9940801852848145 1
    endloop
  endfacet
  facet normal 0 0 1
    outer loop
      vertex -0.3759997006929129 2.9763441039434335 1
      vertex -0.3759997006929122 -2.9763441039434335 1
      vertex -0.1883715585879413 -2.9940801852848145 1
    endloop
  endfacet
  facet normal 0 0 1
    outer loop
      vertex -0.5621439437571737 2.946861752186066 1
      vertex -0.3759997006929122 -2.9763441039434335 1
      vertex -0.3759997006929129 2.9763441039434335 1
    endloop
  endfacet
  facet normal 0 0 1
    outer loop
      vertex -0.5621439437571737 2.946861752186066 1
      vertex -0.5621439437571745 -2.9468617521860656 1
      vertex -0.3759997006929122 -2.9763441039434335 1
    endloop
  endfacet
  facet normal 0 0 1
    outer loop
      vertex -0.7460696614945646 2.9057494833858932 1
      vertex -0.5621439437571745 -2.9468617521860656 1
      vertex -0.5621439437571737 2.946861752186066 1
    endloop
  endfacet
  facet normal 0 0 1
    outer loop
      vertex -0.7460696614945646 2.9057494833858932 1
      vertex -0.7460696614945646 -2.9057494833858932 1
      vertex -0.5621439437571745 -2.9468617521860656 1
    endloop
  endfacet
  facet normal 0 0 1
    outer loop
      vertex -0.9270509831248421 2.8531695488854605 1
      vertex -0.7460696614945646 -2.9057494833858932 1
      vertex -0.7460696614945646 2.9057494833858932 1
    endloop
  endfacet
  facet normal 0 0 1
    outer loop
      vertex -0.9270509831248421 2.8531695488854605 1
      vertex -0.9270509831248421 -2.8531695488854605 1
      vertex -0.7460696614945646 -2.9057494833858932 1
    endloop
  endfacet
  facet normal 0 0 1
    outer loop
      vertex -1.1043736580540335 2.7893294576647545 1
      vertex -0.9270509831248421 -2.8531695488854605 1
      vertex -0.9270509831248421 2.8531695488854605 1
    endloop
  endfacet
  facet normal 0 0 1
    outer loop
      vertex -1.1043736580540335 2.7893294576647545 1
      vertex -1.1043736580540335 -2.7893294576647545 1
      vertex -0.9270509831248421 -2.8531695488854605 1
    endloop
  endfacet
  facet normal 0 0 1
    outer loop
      vertex -1.2773378746952182 2.7144811573980583 1
      vertex -1.1043736580540335 -2.7893294576647545 1
      vertex -1.1043736580540335 2.7893294576647545 1
    endloop
  endfacet
  facet normal 0 0 1
    outer loop
      vertex -1.2773378746952182 2.7144811573980583 1
      vertex -1.2773378746952173 -2.7144811573980587 1
      vertex -1.1043736580540335 -2.7893294576647545 1
    endloop
  endfacet
  facet normal 0 0 1
    outer loop
      vertex -1.4452610223051456 2.628920040131591 1
      vertex -1.2773378746952173 -2.7144811573980587 1
      vertex -1.2773378746952182 2.7144811573980583 1
    endloop
  endfacet
  facet normal 0 0 1
    outer loop
      vertex -1.4452610223051456 2.628920040131591 1
      vertex -1.445261022305146 -2.6289200401315904 1
      vertex -1.2773378746952173 -2.7144811573980587 1
    endloop
  endfacet
  facet normal 0 0 1
    outer loop
      vertex -1.6074803849369903 2.532983776506045 1
      vertex -1.445261022305146 -2.6289200401315904 1
      vertex -1.4452610223051456 2.628920040131591 1
    endloop
  endfacet
  facet normal 0 0 1
    outer loop
      vertex -1.6074803849369903 2.532983776506045 1
      vertex -1.6074803849369903 -2.532983776506045 1
      vertex -1.445261022305146 -2.6289200401315904 1
    endloop
  endfacet
  facet normal 0 0 1
    outer loop
      vertex -1.7633557568774194 2.4270509831248424 1
      vertex -1.6074803849369903 -2.532983776506045 1
      vertex -1.6074803849369903 2.532983776506045 1
    endloop
  endfacet
  facet normal 0 0 1
    outer loop
      vertex -1.7633557568774194 2.4270509831248424 1
      vertex -1.7633557568774194 -2.4270509831248424 1
      vertex -1.6074803849369903 -2.532983776506045 1
    endloop
  endfacet
  facet normal 0 0 1
    outer loop
      vertex -1.9122719692460688 2.311539728327368 1
      vertex -1.7633557568774194 -2.4270509831248424 1
      vertex -1.7633557568774194 2.4270509831248424 1
    endloop
  endfacet
  facet normal 0 0 1
    outer loop
      vertex -1.9122719692460688 2.311539728327368 1
      vertex -1.9122719692460688 -2.311539728327368 1
      vertex -1.7633557568774194 -2.4270509831248424 1
    endloop
  endfacet
  facet normal 0 0 1
    outer loop
      vertex -2.0536413177860657 2.186905882264235 1
      vertex -1.9122719692460688 -2.311539728327368 1
      vertex -1.9122719692460688 2.311539728327368 1
    endloop
  endfacet
  facet normal 0 0 1
    outer loop
      vertex -2.0536413177860657 2.186905882264235 1
      vertex -2.0536413177860657 -2.186905882264235 1
      vertex -1.9122719692460688 -2.311539728327368 1
    endloop
  endfacet
  facet normal 0 0 1
    outer loop
      vertex -2.186905882264235 2.0536413177860657 1
      vertex -2.0536413177860657 -2.186905882264235 1
      vertex -2.0536413177860657 2.186905882264235 1
    endloop
  endfacet
  facet normal 0 0 1
    outer loop
      vertex -2.186905882264235 2.0536413177860657 1
      vertex -2.186905882264235 -2.0536413177860657 1
      vertex -2.0536413177860657 -2.186905882264235 1
    endloop
  endfacet
  facet normal 0 0 1
    outer loop
      vertex -2.311539728327368 1.9122719692460688 1
      vertex -2.186905882264235 -2.0536413177860657 1
      vertex -2.186905882264235 2.0536413177860657 1
    endloop
  endfacet
  facet normal 0 0 1
    outer loop
      vertex -2.311539728327368 1.9122719692460688 1
      vertex -2.311539728327368 -1.9122719692460688 1
      vertex -2.186905882264235 -2.0536413177860657 1
    endloop
  endfacet
  facet normal 0 0 1
    outer loop
      vertex -2.4270509831248424 1.7633557568774194 1
      vertex -2.311539728327368 -1.9122719692460688 1
      vertex -2.311539728327368 1.9122719692460688 1
    endloop
  endfacet
  facet normal 0 0 1
    outer loop
      vertex -2.4270509831248424 1.7633557568774194 1
      vertex -2.4270509831248424 -1.7633557568774194 1
      vertex -2.311539728327368 -1.9122719692460688 1
    endloop
  endfacet
  facet normal 0 0 1
    outer loop
      vertex -2.532983776506045 1.6074803849369903 1
      vertex -2.4270509831248424 -1.7633557568774194 1
      vertex -2.4270509831248424 1.7633557568774194 1
    endloop
  endfacet
  facet normal 0 0 1
    outer loop
      vertex -2.532983776506045 1.6074803849369903 1
      vertex -2.532983776506045 -1.6074803849369903 1
      vertex -2.4270509831248424 -1.7633557568774194 1
    endloop
  endfacet
  facet normal 0 0 1
    outer loop
      vertex -2.6289200401315904 1.445261022305146 1
      vertex -2.532983776506045 -1.6074803849369903 1
      vertex -2.532983776506045 1.6074803849369903 1
    endloop
  endfacet
  facet normal 0 0 1
    outer loop
      vertex -2.6289200401315904 1.445261022305146 1
      vertex -2.6289200401315904 -1.445261022305146 1
      vertex -2.532983776506045 -1.6074803849369903 1
    endloop
  endfacet
  facet normal 0 0 1
    outer loop
      vertex -2.7144811573980587 1.2773378746952173 1
      vertex -2.6289200401315904 -1.445261022305146 1
      vertex -2.6289200401315904 1.445261022305146 1
    endloop
  endfacet
  facet normal 0 0 1
    outer loop
      vertex -2.7144811573980587 1.2773378746952173 1
      vertex -2.7144811573980587 -1.2773378746952173 1
      vertex -2.6289200401315904 -1.445261022305146 1
    endloop
  endfacet
  facet normal 0 0 1
    outer loop
      vertex -2.7893294576647545 1.1043736580540335 1
      vertex -2.7144811573980587 -1.2773378746952173 1
      vertex -2.7144811573980587 1.2773378746952173 1
    endloop
  endfacet
  facet normal 0 0 1
    outer loop
      vertex -2.7893294576647545 1.1043736580540335 1
      vertex -2.7893294576647545 -1.1043736580540335 1
      vertex -2.7144811573980587 -1.2773378746952173 1
    endloop
  endfacet
  facet normal 0 0 1
    outer loop
      vertex -2.8531695488854605 0.9270509831248421 1
      vertex -2.7893294576647545 -1.1043736580540335 1
      vertex -2.7893294576647545 1.1043736580540335 1
    endloop
  endfacet
  facet normal 0 0 1
    outer loop
      vertex -2.8531695488854605 0.9270509831248421 1
      vertex -2.8531695488854605 -0.9270509831248421 1
      vertex -2.7893294576647545 -1.1043736580540335 1
    endloop
  endfacet
  facet normal 0 0 1
    outer loop
      vertex -2.9057494833858932 0.7460696614945646 1
      vertex -2.8531695488854605 -0.9270509831248421 1
      vertex -2.8531695488854605 0.9270509831248421 1
    endloop
  endfacet
  facet normal 0 0 1
    outer loop
      vertex -2.9057494833858932 0.7460696614945646 1
      vertex -2.9057494833858932 -0.7460696614945646 1
      vertex -2.8531695488854605 -0.9270509831248421 1
    endloop
  endfacet
  facet normal 0 0 1
    outer loop
      vertex -2.9468617521860656 0.5621439437571745 1
      vertex -2.9057494833858932 -0.7460696614945646 1
      vertex -2.9057494833858932 0.7460696614945646 1
    endloop
  endfacet
  facet normal 0 0 1
    outer loop
      vertex -2.9468617521860656 0.5621439437571745 1
      vertex -2.9468617521860656 -0.5621439437571745 1
      vertex -2.9057494833858932 -0.7460696614945646 1
    endloop
  endfacet
  facet normal 0 0 1
    outer loop
      vertex -2.9763441039434335 0.3759997006929122 1
      vertex -2.9468617521860656 -0.5621439437571745 1
      vertex -2.9468617521860656 0.5621439437571745 1
    endloop
  endfacet
  facet normal 0 0 1
    outer loop
      vertex -2.9763441039434335 0.3759997006929122 1
      vertex -2.9763441039434335 -0.3759997006929122 1
      vertex -2.9468617521860656 -0.5621439437571745 1
    endloop
  endfacet
  facet normal 0 0 1
    outer loop
      vertex -2.9940801852848145 0.18837155858793983 1
      vertex -2.9763441039434335 -0.3759997006929122 1
      vertex -2.9763441039434335 0.3759997006929122 1
    endloop
  endfacet
  facet normal 0 0 1
    outer loop
      vertex -2.9940801852848145 0.18837155858793983 1
      vertex -2.9940801852848145 -0.18837155858793983 1
      vertex -2.9763441039434335 -0.3759997006929122 1
    endloop
  endfacet
  facet normal 0 0 1
    outer loop
      vertex -2.9940801852848145 -0.18837155858793983 1
      vertex -2.9940801852848145 0.18837155858793983 1
      vertex -3 0 1
    endloop
  endfacet
endsolid OpenSCAD_Model
