0
SECTION
2
HEADER
9
$INSUNITS
70
4
0
ENDSEC
0
SECTION
2
TABLES
0
TABLE
2
LAYER
70
3
0
LAYER
2
OUTLINE
70
0
62
7
6
CONTINUOUS
0
LAYER
2
CUT
70
0
62
1
6
CONTINUOUS
0
LAYER
2
DRILL
70
0
62
3
6
CONTINUOUS
0
ENDTAB
0
ENDSEC
0
SECTION
2
ENTITIES
0
LINE
8
OUTLINE
10
0.0000
20
0.0000
30
0.0
11
181.8000
21
0.0000
31
0.0
0
LINE
8
OUTLINE
10
181.8000
20
0.0000
30
0.0
11
181.8000
21
113.8000
31
0.0
0
LINE
8
OUTLINE
10
181.8000
20
113.8000
30
0.0
11
0.0000
21
113.8000
31
0.0
0
LINE
8
OUTLINE
10
0.0000
20
113.8000
30
0.0
11
0.0000
21
0.0000
31
0.0
0
CIRCLE
8
CUT
10
15.9000
20
48.4000
30
0.0
40
11.1500
0
CIRCLE
8
CUT
10
15.9000
20
100.4000
30
0.0
40
11.1500
0
CIRCLE
8
CUT
10
90.9000
20
48.4000
30
0.0
40
11.1500
0
CIRCLE
8
CUT
10
90.9000
20
100.4000
30
0.0
40
11.1500
0
CIRCLE
8
CUT
10
165.9000
20
48.4000
30
0.0
40
11.1500
0
CIRCLE
8
CUT
10
165.9000
20
100.4000
30
0.0
40
11.1500
0
CIRCLE
8
CUT
10
53.9000
20
15.4000
30
0.0
40
11.1500
0
CIRCLE
8
CUT
10
128.9000
20
15.4000
30
0.0
40
11.1500
0
LINE
8
CUT
10
36.1500
20
59.2500
30
0.0
11
70.6500
21
59.2500
31
0.0
0
LINE
8
CUT
10
70.6500
20
59.2500
30
0.0
11
70.6500
21
95.9500
31
0.0
0
LINE
8
CUT
10
70.6500
20
95.9500
30
0.0
11
36.1500
21
95.9500
31
0.0
0
LINE
8
CUT
10
36.1500
20
95.9500
30
0.0
11
36.1500
21
59.2500
31
0.0
0
LINE
8
CUT
10
111.1500
20
59.2500
30
0.0
11
145.6500
21
59.2500
31
0.0
0
LINE
8
CUT
10
145.6500
20
59.2500
30
0.0
11
145.6500
21
95.9500
31
0.0
0
LINE
8
CUT
10
145.6500
20
95.9500
30
0.0
11
111.1500
21
95.9500
31
0.0
0
LINE
8
CUT
10
111.1500
20
95.9500
30
0.0
11
111.1500
21
59.2500
31
0.0
0
CIRCLE
8
CUT
10
78.4000
20
29.4000
30
0.0
40
3.0000
0
CIRCLE
8
CUT
10
103.4000
20
29.4000
30
0.0
40
3.0000
0
CIRCLE
8
DRILL
10
38.4000
20
51.6000
30
0.0
40
2.0000
0
CIRCLE
8
DRILL
10
38.4000
20
103.6000
30
0.0
40
2.0000
0
CIRCLE
8
DRILL
10
68.4000
20
51.6000
30
0.0
40
2.0000
0
CIRCLE
8
DRILL
10
68.4000
20
103.6000
30
0.0
40
2.0000
0
CIRCLE
8
DRILL
10
113.4000
20
51.6000
30
0.0
40
2.0000
0
CIRCLE
8
DRILL
10
113.4000
20
103.6000
30
0.0
40
2.0000
0
CIRCLE
8
DRILL
10
143.4000
20
51.6000
30
0.0
40
2.0000
0
CIRCLE
8
DRILL
10
143.4000
20
103.6000
30
0.0
40
2.0000
0
ENDSEC
0
EOF
